<svg width="206" height="250" viewBox="0 0 206 250" fill="none" xmlns="http://www.w3.org/2000/svg">
<path d="M148.27 17.9641L146.055 18.5456L146.047 20.585L147.808 21.4215L148.27 17.9641Z" fill="#263238"/>
<path d="M146.971 18.9997C146.971 18.9997 151.217 12.4753 161.613 15.6857C172.01 18.8962 168.6 32.0168 180.454 41.1781C182.844 42.9864 190.388 47.5511 192.053 54.0198C195.279 66.519 188.619 82.1331 165.166 70.7492C129.652 53.5259 140.71 53.5259 140.71 53.5259C140.71 53.5259 147.497 43.4644 146.868 35.9442C146.521 30.3001 146.556 24.6391 146.971 18.9997Z" fill="#263238"/>
<path d="M171.643 48.9054C171.643 48.9054 191.216 64.2804 190.762 82.2127C190.308 100.145 167.206 98.5915 167.206 98.5915C167.206 98.5915 151.353 55.0236 159.375 51.3351C167.397 47.6467 171.643 48.9054 171.643 48.9054Z" fill="#0466C8"/>
<path opacity="0.5" d="M171.643 48.9054C171.643 48.9054 191.216 64.2804 190.762 82.2127C190.308 100.145 167.206 98.5915 167.206 98.5915C167.206 98.5915 151.353 55.0236 159.375 51.3351C167.397 47.6467 171.643 48.9054 171.643 48.9054Z" fill="black"/>
<path d="M140.272 55.5573C140.272 55.5573 127.749 65.7861 120.619 62.496C113.489 59.2059 109.601 45.1612 109.601 45.1612L109.529 36.2708L105.379 28.7744L98.1296 33.2037C98.1296 33.2037 101.523 45.5755 104.383 46.8421C104.383 46.8421 106.311 63.4201 117.209 70.1198C128.107 76.8195 142.948 62.1534 142.948 62.1534L140.272 55.5573Z" fill="#B55B52"/>
<path d="M173.89 88.3866L145.506 93.5568C145.506 93.5568 135.149 61.556 136.376 52.4903C136.376 52.4903 150.214 44.5239 173.866 45.8862C173.102 52.1837 172.687 58.5186 172.623 64.862C172.623 66.3836 172.671 67.8813 172.758 69.2993C172.822 70.2632 172.91 71.1873 173.021 72.0636C173.762 77.4711 174.053 82.931 173.89 88.3866Z" fill="#0466C8"/>
<path d="M147.29 241.157C147.29 241.157 146.86 237.174 145.322 237.652C143.785 238.13 147.29 241.157 147.29 241.157Z" stroke="#0466C8" stroke-miterlimit="10"/>
<path d="M146.724 240.863C146.724 240.863 143.96 237.827 143.163 239.269C142.367 240.711 146.724 240.863 146.724 240.863Z" fill="#F5F5F5" stroke="#0466C8" stroke-miterlimit="10"/>
<path d="M146.238 96.7672C146.238 96.7672 137.77 154.125 138.646 168.13C139.523 182.135 144.669 228.395 144.669 228.395L159.064 227.718C159.064 227.718 158.323 151.982 163.159 131.493C163.159 131.493 164.657 173.029 168.56 182.095C172.376 190.953 182.055 218.318 186.365 226.021L197.319 222.134C197.319 222.134 189.129 178.319 186.405 169.556C183.68 160.793 185.194 127.701 183.561 115.64C181.928 103.578 179.753 94.7677 175.594 91.8839L146.238 96.7672Z" fill="#263238"/>
<path d="M148.318 230.737C148.318 230.777 149.6 242.456 149.6 242.456L156.873 242.536L155.487 230.474L148.318 230.737Z" fill="#B55B52"/>
<path d="M158.451 250C158.596 249.987 158.737 249.943 158.863 249.87C158.989 249.798 159.098 249.699 159.183 249.58C159.267 249.461 159.324 249.325 159.35 249.181C159.377 249.038 159.371 248.89 159.335 248.749C159.144 247.602 158.475 241.667 158.172 241.173C157.869 240.679 149.234 239.891 148.453 240.209C148.27 240.281 147.871 240.504 147.33 240.791C145.505 241.779 142.048 243.595 139.57 243.619C136.384 243.659 135.324 243.746 135.587 245.212C135.85 246.678 136.384 247.698 138.2 247.881C140.017 248.064 158.451 250 158.451 250Z" fill="#263238"/>
<path d="M188.611 225.663C188.978 225.033 194.188 237.612 194.188 237.612L200.896 234.792L195.606 221.13L188.611 225.663Z" fill="#B55B52"/>
<path d="M143.124 226.021L144.366 231.908L160.028 232.817L160.156 226.491L143.124 226.021Z" fill="#0466C8"/>
<path d="M184.644 223.799L197.55 219.808L198.45 224.779L187.385 228.395L184.644 223.799Z" fill="#0466C8"/>
<path d="M173.866 45.8861C173.866 45.8861 181.091 52.307 184.413 58.951L172.623 64.8699C172.623 64.8699 167.66 51.1599 173.866 45.8861Z" fill="#0466C8"/>
<path d="M140.351 71.9282C139.945 71.7609 139.555 71.5856 139.172 71.4103C138.319 71.0131 137.487 70.5716 136.679 70.0879C132.401 67.5741 128.864 63.9738 126.426 59.652L136.36 52.4823C136.36 52.4823 150.238 76.0069 140.351 71.9282Z" fill="#0466C8"/>
<path d="M165.166 34.3987C164.875 35.009 164.36 35.4841 163.729 35.7258C163.097 35.9674 162.397 35.9572 161.773 35.6972C161.029 36.9777 160.025 38.0877 158.825 38.9554C158.873 44.7151 161.876 46.3323 161.876 46.3323C154.587 55.5892 148.819 48.1884 148.819 48.1884C151.464 47.6308 151.958 45.2648 151.934 43.5122C151.926 42.8474 151.849 42.1852 151.703 41.5365C143.96 40.4053 142.892 36.7009 142.94 30.9333C142.988 25.1657 146.971 18.9838 146.971 18.9838C146.971 18.9838 151.249 16.315 155.169 17.1196C155.186 22.7624 157.285 28.2003 161.064 32.3911C161.064 32.3911 161.159 29.2046 163.653 29.4038C166.146 29.6029 166.393 32.1442 165.166 34.3987Z" fill="#B55B52"/>
<path d="M149.114 33.0444C149.905 33.3118 150.753 33.3574 151.568 33.1762C152.383 32.995 153.132 32.594 153.735 32.0167" stroke="#263238" stroke-width="0.5" stroke-linecap="round" stroke-linejoin="round"/>
<path d="M147.792 30.519L148.827 26.4642L145.84 29.6507C145.897 29.8456 145.996 30.0258 146.13 30.1786C146.264 30.3315 146.429 30.4534 146.615 30.536C146.801 30.6186 147.002 30.6599 147.205 30.6569C147.408 30.654 147.609 30.607 147.792 30.519Z" fill="#A02724"/>
<path d="M153.894 26.5837C153.751 27.1572 153.328 27.5476 152.946 27.444C152.564 27.3405 152.38 26.8067 152.532 26.2411C152.683 25.6755 153.097 25.2852 153.48 25.3807C153.862 25.4763 154.022 26.0181 153.894 26.5837Z" fill="#263238"/>
<path d="M147.362 25.102C147.21 25.6676 146.788 26.0579 146.414 25.9623C146.039 25.8667 145.84 25.325 145.991 24.7514C146.143 24.1779 146.557 23.7955 146.939 23.8911C147.322 23.9867 147.521 24.5284 147.362 25.102Z" fill="#263238"/>
<path d="M153.456 25.3807L152.317 24.7594C152.332 24.8854 152.377 25.006 152.448 25.1112C152.519 25.2163 152.615 25.3028 152.726 25.3636C152.838 25.4244 152.962 25.4577 153.089 25.4607C153.216 25.4637 153.342 25.4362 153.456 25.3807Z" fill="#263238"/>
<path d="M146.94 23.9229L145.816 23.3095C145.816 23.3095 145.928 24.4168 146.94 23.9229Z" fill="#263238"/>
<path opacity="0.2" d="M139.188 71.4103C138.335 71.013 137.502 70.5716 136.695 70.0879L138.583 61.8348L139.188 71.4103Z" fill="black"/>
<path d="M152.882 22.489C152.882 22.489 155.169 21.3418 156.579 24.0265" stroke="#263238" stroke-width="0.75" stroke-linecap="round" stroke-linejoin="round"/>
<path d="M148.27 22.242C147.937 21.8404 147.471 21.5708 146.957 21.4817C146.443 21.3926 145.914 21.4899 145.466 21.7561" stroke="#263238" stroke-width="0.75" stroke-linecap="round" stroke-linejoin="round"/>
<path opacity="0.2" d="M172.758 69.3311L170.233 60.4008L172.623 64.8938C172.631 66.3835 172.671 67.8812 172.758 69.3311Z" fill="black"/>
<path opacity="0.2" d="M155.105 41.5365C154.196 42.4156 153.11 43.0894 151.918 43.5122C151.91 42.8474 151.833 42.1852 151.687 41.5365C152.824 41.6364 153.968 41.6364 155.105 41.5365Z" fill="black"/>
<path d="M169.691 45.7268C169.691 45.7268 160.466 62.7429 173.579 77.3532L173.945 82.2844C173.945 82.2844 156.077 70.3349 166.537 45.7268H169.691Z" fill="#0466C8"/>
<path opacity="0.5" d="M169.691 45.7268C169.691 45.7268 160.466 62.7429 173.579 77.3532L173.945 82.2844C173.945 82.2844 156.077 70.3349 166.537 45.7268H169.691Z" fill="black"/>
<path d="M147.33 48.3796C147.33 48.3796 140.423 57.7003 142.223 82.7226L140.837 77.7595C140.837 77.7595 137.189 60.0822 144.916 49.0807L147.33 48.3796Z" fill="#0466C8"/>
<path opacity="0.5" d="M147.33 48.3796C147.33 48.3796 140.423 57.7003 142.223 82.7226L140.837 77.7595C140.837 77.7595 137.189 60.0822 144.916 49.0807L147.33 48.3796Z" fill="black"/>
<path d="M175.594 91.9078L171.221 92.6327L170.432 92.7602L166.17 93.4692L165.382 93.5966L161.096 94.3057L160.307 94.4411L155.854 95.174L155.065 95.3094L150.309 96.0901L149.528 96.2255L146.238 96.7673L145.505 93.5568L148.827 92.8797L149.608 92.7203L154.324 91.7564L155.105 91.5971L159.526 90.6969L160.307 90.5376L164.561 89.6692L165.342 89.5099L169.572 88.6416L170.353 88.4822L175.164 87.5024L175.594 91.9078Z" fill="white"/>
<path d="M150.309 96.0901L149.528 96.2255L148.827 92.8797L149.608 92.7203L150.309 96.0901Z" fill="#0466C8"/>
<path d="M155.854 95.174L155.065 95.3094L154.324 91.7564L155.105 91.5971L155.854 95.174Z" fill="#0466C8"/>
<path d="M161.096 94.3056L160.307 94.4411L159.526 90.6969L160.307 90.5375L161.096 94.3056Z" fill="#0466C8"/>
<path d="M166.17 93.4692L165.381 93.5966L164.561 89.6692L165.342 89.5099L166.17 93.4692Z" fill="#0466C8"/>
<path d="M171.221 92.6327L170.432 92.7601L169.572 88.6415L170.352 88.4822L171.221 92.6327Z" fill="#0466C8"/>
<path d="M183.816 89.4701C170.161 93.2063 161.972 74.7642 161.972 74.7642C157.232 70.781 154.643 64.1132 154.643 64.1132L159.638 59.5086L165.493 65.4435L165.142 71.2271C165.142 71.2271 174.917 83.575 178.725 81.5834C182.023 79.8706 178.406 70.0401 175.499 63.4042L181.434 60.4247C186.875 72.2388 191.941 87.2554 183.816 89.4701Z" fill="#B55B52"/>
<path d="M191.543 235.031C191.543 235.031 187.313 229.614 185.728 231.518C184.142 233.422 191.543 235.031 191.543 235.031Z" stroke="#0466C8" stroke-miterlimit="10"/>
<path d="M190.539 235.549C190.539 235.549 184.692 234.211 184.11 235.549C183.529 236.887 190.539 235.549 190.539 235.549Z" stroke="#0466C8" stroke-miterlimit="10"/>
<path d="M204.56 238.218C204.687 238.145 204.796 238.046 204.88 237.927C204.964 237.809 205.022 237.673 205.048 237.53C205.075 237.386 205.07 237.239 205.034 237.098C204.998 236.957 204.931 236.825 204.839 236.712C204.186 235.748 201.095 230.634 200.609 230.339C200.123 230.044 191.957 232.904 191.376 233.526C191.248 233.669 190.977 234.035 190.579 234.529C189.344 236.178 186.962 239.309 184.716 240.345C181.808 241.731 180.916 242.233 181.776 243.484C182.637 244.734 183.513 245.419 185.274 244.806C187.034 244.193 204.56 238.218 204.56 238.218Z" fill="#263238"/>
<path d="M168.186 21.1506C145.083 16.3708 145.975 20.354 146.047 20.585C145.784 20.4735 139.849 17.8764 140.861 16.5461C141.873 15.2157 146.374 15.5423 146.374 15.5423C147.687 13.7045 149.49 12.2729 151.577 11.4108C153.665 10.5487 155.953 10.2909 158.18 10.6669C168.186 11.9734 168.186 21.1506 168.186 21.1506Z" fill="#0466C8"/>
<path opacity="0.2" d="M168.186 21.1506C145.083 16.3708 145.975 20.354 146.047 20.585C145.784 20.4735 139.849 17.8765 140.861 16.5461C141.873 15.2157 146.374 15.5423 146.374 15.5423C146.374 15.5423 154.093 15.6778 168.186 21.1506Z" fill="black"/>
<path d="M104.781 0H13.1047C6.67234 0 1.45789 5.21445 1.45789 11.6468V231.16C1.45789 237.592 6.67234 242.806 13.1047 242.806H104.781C111.214 242.806 116.428 237.592 116.428 231.16V11.6468C116.428 5.21445 111.214 0 104.781 0Z" fill="#0466C8"/>
<path d="M3.74418 40.9232H2.18278C0.977262 40.9232 0 41.9004 0 43.1059V71.3387C0 72.5442 0.977262 73.5215 2.18278 73.5215H3.74418C4.9497 73.5215 5.92697 72.5442 5.92697 71.3387V43.1059C5.92697 41.9004 4.9497 40.9232 3.74418 40.9232Z" fill="#0466C8"/>
<path d="M107.203 0H15.5266C9.09421 0 3.87976 5.21445 3.87976 11.6468V231.16C3.87976 237.592 9.09421 242.806 15.5266 242.806H107.203C113.636 242.806 118.85 237.592 118.85 231.16V11.6468C118.85 5.21445 113.636 0 107.203 0Z" fill="#0466C8"/>
<path opacity="0.3" d="M107.203 0H15.5266C9.09421 0 3.87976 5.21445 3.87976 11.6468V231.16C3.87976 237.592 9.09421 242.806 15.5266 242.806H107.203C113.636 242.806 118.85 237.592 118.85 231.16V11.6468C118.85 5.21445 113.636 0 107.203 0Z" fill="white"/>
<path opacity="0.4" d="M61.3568 234.553C64.9778 234.553 67.9132 231.618 67.9132 227.997C67.9132 224.376 64.9778 221.441 61.3568 221.441C57.7359 221.441 54.8005 224.376 54.8005 227.997C54.8005 231.618 57.7359 234.553 61.3568 234.553Z" fill="black"/>
<path d="M116.078 18.5457H6.65198V216.613H116.078V18.5457Z" fill="#0466C8"/>
<path opacity="0.4" d="M76.7637 10.3164C76.7652 9.88945 76.6402 9.47159 76.4043 9.11569C76.1684 8.75979 75.8322 8.48185 75.4383 8.31699C75.0444 8.15214 74.6105 8.10779 74.1914 8.18954C73.7724 8.2713 73.3869 8.47549 73.0839 8.7763C72.7808 9.0771 72.5738 9.46102 72.489 9.87949C72.4041 10.298 72.4453 10.7322 72.6072 11.1273C72.7692 11.5224 73.0446 11.8605 73.3988 12.0991C73.7529 12.3376 74.1698 12.4658 74.5968 12.4673C75.1673 12.4673 75.7144 12.2407 76.1178 11.8374C76.5211 11.434 76.7477 10.8869 76.7477 10.3164H76.7637Z" fill="black"/>
<path opacity="0.4" d="M67.1722 8.15753H49.2638C48.0759 8.15753 47.1129 9.12053 47.1129 10.3085V10.3164C47.1129 11.5043 48.0759 12.4673 49.2638 12.4673H67.1722C68.3601 12.4673 69.3231 11.5043 69.3231 10.3164V10.3085C69.3231 9.12053 68.3601 8.15753 67.1722 8.15753Z" fill="black"/>
<path opacity="0.2" d="M116.078 18.5457H6.65198V216.613H116.078V18.5457Z" fill="#FAFAFA"/>
<path d="M34.351 18.5457L29.8102 59.1581L6.65198 54.3624V18.5457H34.351Z" fill="white"/>
<path d="M38.0235 18.5457L36.701 35.7052L53.5101 26.4164V18.5457H38.0235Z" fill="white"/>
<path d="M54.227 29.4516L36.701 39.3458L35.7291 50.9608L75.306 59.1581L78.604 30.5987L54.227 29.4516Z" fill="white"/>
<path d="M56.5212 18.5457V25.8667L69.8569 27.1254L72.446 18.5457H56.5212Z" fill="white"/>
<path d="M75.4652 18.5457L72.4459 27.1254L98.1215 29.4516L105.713 18.5457H75.4652Z" fill="white"/>
<path d="M109.179 18.5457L100.75 30.6545L116.078 37.6649V18.5457H109.179Z" fill="white"/>
<path d="M81.3764 30.6545L79.7114 45.7269L107.14 37.6649L99.6592 33.9844L81.3764 30.6545Z" fill="white"/>
<path d="M43.4247 216.613L30.2005 169.197L6.65198 177.387V216.613H43.4247Z" fill="white"/>
<path d="M116.078 157.503L83.7901 145.458L78.2455 151.48L86.2756 178.534L116.078 173.754V157.503Z" fill="white"/>
<path d="M115.903 153.663L89.0798 143.203L116.078 106.176L115.903 153.663Z" fill="white"/>
<path d="M6.65198 132.927L47.1131 112.596L61.3649 82.7226L29.6747 63.8822L6.65198 59.1581V132.927Z" fill="white"/>
<path d="M116.078 176.901L65.0213 186.827L47.567 216.613H116.078V176.901Z" fill="white"/>
<path d="M116.078 44.3088L91.0793 67.9291L101.953 118.484L116.078 98.1295V44.3088Z" fill="white"/>
<path d="M82.7094 109.709C85.9947 106.424 85.9947 101.097 82.7094 97.8121C79.4242 94.5268 74.0977 94.5268 70.8124 97.8121C67.5271 101.097 67.5271 106.424 70.8124 109.709C74.0977 112.994 79.4242 112.994 82.7094 109.709Z" fill="#C80404"/>
<path d="M76.7637 103.762V122.977C76.7637 122.977 68.2955 112.796 68.3512 103.762H76.7637Z" fill="#C80404"/>
<path d="M76.7639 103.762V122.977C76.7639 122.977 85.2401 112.796 85.1764 103.762H76.7639Z" fill="#C80404"/>
<path d="M81.5674 103.427C81.5674 104.373 81.2871 105.297 80.7619 106.083C80.2367 106.869 79.4902 107.481 78.6168 107.843C77.7434 108.205 76.7823 108.3 75.8551 108.115C74.9279 107.931 74.0763 107.475 73.4078 106.807C72.7393 106.139 72.2841 105.287 72.0997 104.36C71.9152 103.432 72.0099 102.471 72.3717 101.598C72.7334 100.725 73.3461 99.9781 74.1321 99.4529C74.9181 98.9277 75.8423 98.6473 76.7876 98.6473C78.0553 98.6473 79.2711 99.1509 80.1675 100.047C81.0639 100.944 81.5674 102.159 81.5674 103.427Z" fill="#FAFAFA"/>
<path d="M113.25 38.8519L76.7639 71.4104V89.972" stroke="#0466C8" stroke-linecap="round" stroke-linejoin="round" stroke-dasharray="2 2"/>
<path d="M60.831 183.17L47.1209 208.456L34.0083 169.197L76.0229 156.834L80.8823 178.534L60.831 183.17Z" fill="white"/>
<path d="M6.65198 136.575L47.5672 117.575L70.8289 152.229L6.65198 171.986V136.575Z" fill="white"/>
</svg>
