<svg width="54" height="41" viewBox="0 0 54 41" fill="none" xmlns="http://www.w3.org/2000/svg">
<path d="M5.00398 22.9999L0.341998 10.4H2.37599L6.15597 21.0199L9.95395 10.4H11.9699L7.30797 22.9999H5.00398ZM16.5792 23.2159C15.7032 23.2159 14.9232 23.0239 14.2392 22.6399C13.5672 22.2439 13.0392 21.6979 12.6552 21.0019C12.2712 20.306 12.0792 19.496 12.0792 18.572C12.0792 17.636 12.2652 16.814 12.6372 16.106C13.0212 15.398 13.5492 14.846 14.2212 14.45C14.9052 14.054 15.6972 13.856 16.5972 13.856C17.4732 13.856 18.2352 14.054 18.8832 14.45C19.5312 14.834 20.0352 15.35 20.3952 15.998C20.7552 16.646 20.9352 17.36 20.9352 18.14C20.9352 18.26 20.9292 18.392 20.9172 18.536C20.9172 18.668 20.9112 18.818 20.8992 18.986H13.9512C14.0112 19.85 14.2932 20.51 14.7972 20.9659C15.3132 21.4099 15.9072 21.6319 16.5792 21.6319C17.1192 21.6319 17.5692 21.5119 17.9292 21.2719C18.3012 21.0199 18.5772 20.6839 18.7572 20.264H20.6652C20.4252 21.1039 19.9452 21.8059 19.2252 22.3699C18.5172 22.9339 17.6352 23.2159 16.5792 23.2159ZM16.5792 15.422C15.9432 15.422 15.3792 15.614 14.8872 15.998C14.3952 16.37 14.0952 16.934 13.9872 17.69H19.0272C18.9912 16.994 18.7452 16.442 18.2892 16.034C17.8332 15.626 17.2632 15.422 16.5792 15.422ZM22.9149 22.9999V14.072H24.6249L24.7869 15.764C25.0989 15.176 25.5309 14.714 26.0829 14.378C26.6469 14.03 27.3249 13.856 28.1169 13.856V15.854H27.5949C27.0669 15.854 26.5929 15.944 26.1729 16.124C25.7649 16.292 25.4349 16.586 25.1829 17.006C24.9429 17.414 24.8229 17.984 24.8229 18.716V22.9999H22.9149ZM30.8327 12.38C30.4727 12.38 30.1727 12.272 29.9327 12.056C29.7047 11.828 29.5907 11.546 29.5907 11.21C29.5907 10.874 29.7047 10.598 29.9327 10.382C30.1727 10.154 30.4727 10.04 30.8327 10.04C31.1927 10.04 31.4867 10.154 31.7147 10.382C31.9547 10.598 32.0747 10.874 32.0747 11.21C32.0747 11.546 31.9547 11.828 31.7147 12.056C31.4867 12.272 31.1927 12.38 30.8327 12.38ZM29.8787 22.9999V14.072H31.7867V22.9999H29.8787ZM34.7554 22.9999V15.674H33.4775V14.072H34.7554V12.776C34.7554 11.804 34.9954 11.108 35.4754 10.688C35.9674 10.256 36.6574 10.04 37.5454 10.04H38.4814V11.66H37.8334C37.4134 11.66 37.1134 11.75 36.9334 11.93C36.7534 12.098 36.6634 12.386 36.6634 12.794V14.072H38.7154V15.674H36.6634V22.9999H34.7554ZM41.5721 26.9599L43.7141 22.2619H43.1921L39.6641 14.072H41.7341L44.4701 20.6779L47.332 14.072H49.348L43.5881 26.9599H41.5721ZM0.467998 36.9999L5.11198 24.4H7.19997L11.8079 36.9999H9.79195L8.71196 33.922H3.56398L2.48399 36.9999H0.467998ZM4.10398 32.41H8.17196L6.13797 26.668L4.10398 32.41ZM13.493 40.9599V28.072H15.203L15.401 29.458C15.689 29.038 16.085 28.666 16.589 28.342C17.093 28.018 17.741 27.856 18.533 27.856C19.397 27.856 20.159 28.06 20.819 28.468C21.479 28.876 21.995 29.434 22.367 30.142C22.751 30.85 22.943 31.654 22.943 32.554C22.943 33.454 22.751 34.258 22.367 34.9659C21.995 35.6619 21.479 36.2139 20.819 36.6219C20.159 37.0179 19.391 37.2159 18.515 37.2159C17.819 37.2159 17.201 37.0779 16.661 36.8019C16.133 36.5259 15.713 36.1359 15.401 35.6319V40.9599H13.493ZM18.191 35.5599C19.007 35.5599 19.679 35.2839 20.207 34.7319C20.735 34.168 20.999 33.436 20.999 32.536C20.999 31.948 20.879 31.426 20.639 30.97C20.399 30.514 20.069 30.16 19.649 29.908C19.229 29.644 18.743 29.512 18.191 29.512C17.375 29.512 16.703 29.794 16.175 30.358C15.659 30.922 15.401 31.648 15.401 32.536C15.401 33.436 15.659 34.168 16.175 34.7319C16.703 35.2839 17.375 35.5599 18.191 35.5599ZM25.0067 40.9599V28.072H26.7167L26.9147 29.458C27.2027 29.038 27.5987 28.666 28.1027 28.342C28.6066 28.018 29.2546 27.856 30.0466 27.856C30.9106 27.856 31.6726 28.06 32.3326 28.468C32.9926 28.876 33.5086 29.434 33.8806 30.142C34.2646 30.85 34.4566 31.654 34.4566 32.554C34.4566 33.454 34.2646 34.258 33.8806 34.9659C33.5086 35.6619 32.9926 36.2139 32.3326 36.6219C31.6726 37.0179 30.9046 37.2159 30.0286 37.2159C29.3326 37.2159 28.7146 37.0779 28.1747 36.8019C27.6467 36.5259 27.2267 36.1359 26.9147 35.6319V40.9599H25.0067ZM29.7046 35.5599C30.5206 35.5599 31.1926 35.2839 31.7206 34.7319C32.2486 34.168 32.5126 33.436 32.5126 32.536C32.5126 31.948 32.3926 31.426 32.1526 30.97C31.9126 30.514 31.5826 30.16 31.1626 29.908C30.7426 29.644 30.2566 29.512 29.7046 29.512C28.8886 29.512 28.2167 29.794 27.6887 30.358C27.1727 30.922 26.9147 31.648 26.9147 32.536C26.9147 33.436 27.1727 34.168 27.6887 34.7319C28.2167 35.2839 28.8886 35.5599 29.7046 35.5599Z" fill="#3A3A3A"/>
<path d="M22.0005 2.99999C22.0005 1.34314 23.3436 0 25.0005 0H51.0004C52.6572 0 54.0003 1.34314 54.0003 2.99999H22.0005Z" fill="#0466C8"/>
<path d="M36 32.4998C36 31.6714 36.6716 30.9998 37.5 30.9998H53.9999C53.9999 32.6567 52.6568 33.9998 50.9999 33.9998H37.5C36.6716 33.9998 36 33.3283 36 32.4998Z" fill="#0466C8"/>
<path d="M23.5 12.9999C22.6716 12.9999 22 12.3284 22 11.4999V2.99999H25V11.4999C25 12.3284 24.3284 12.9999 23.5 12.9999Z" fill="#0466C8"/>
<path d="M52.4997 32.9998C51.6713 32.9998 50.9998 32.3283 50.9998 31.4999V2.99998H53.9997V31.4999C53.9997 32.3283 53.3282 32.9998 52.4997 32.9998Z" fill="#0466C8"/>
</svg>
