<svg width="25" height="25" viewBox="0 0 25 25" fill="none" xmlns="http://www.w3.org/2000/svg">
    <defs>
        <linearGradient id="paint0_linear" x1="14.528" y1="12.078" x2="8.71417" y2="15.5663" gradientUnits="userSpaceOnUse">
            <stop offset="0.024" stop-color="#8F4700"/>
            <stop offset="1" stop-color="#703E2D"/>
        </linearGradient>
    </defs>
<path d="M1.45515 24.0762C1.89851 24.5567 3.72468 23.7188 5.16609 23.0469C6.24616 22.545 10.5684 20.7715 12.7169 19.8516C13.2969 19.6036 14.1407 19.2793 14.7481 18.4805C15.2872 17.7696 16.7169 14.75 13.838 11.6914C10.9161 8.58598 7.90632 9.4434 6.78132 10.2403C6.11921 10.709 5.58015 11.7657 5.33796 12.3028C4.31452 14.5723 2.85554 18.7305 2.26179 20.3653C1.82624 21.5704 1.0157 23.5996 1.45515 24.0762Z" fill="#FFC107"/>
<path d="M5.04886 12.9863C5.0762 13.3262 5.14456 13.8789 5.37894 14.9434C5.53909 15.6738 5.80081 16.4395 6.0137 16.9453C6.65237 18.4668 7.54886 19.0801 8.45706 19.5723C10 20.4082 11.0489 20.5645 11.0489 20.5645L9.79105 21.0781C9.79105 21.0781 9.02933 20.9199 7.99026 20.4082C7.00003 19.9199 5.96878 19.0938 5.21487 17.4766C4.8887 16.7754 4.69925 16.0957 4.58987 15.5566C4.45511 14.8887 4.43362 14.5098 4.43362 14.5098L5.04886 12.9863Z" fill="#FF8F00"/>
<path d="M3.50385 16.9473C3.50385 16.9473 3.6601 18.2148 4.70697 19.8145C5.93353 21.6855 7.64642 21.9922 7.64642 21.9922L6.50775 22.4609C6.50775 22.4609 5.23627 22.0723 4.02728 20.4219C3.27338 19.3926 3.06244 18.1621 3.06244 18.1621L3.50385 16.9473Z" fill="#FF8F00"/>
<path d="M2.41983 19.9512C2.41983 19.9512 2.70499 21.0449 3.32999 21.8613C4.07413 22.8359 5.02139 23.1191 5.02139 23.1191L4.14835 23.5059C4.14835 23.5059 3.48624 23.3672 2.76163 22.4492C2.21085 21.752 2.0546 20.9512 2.0546 20.9512L2.41983 19.9512Z" fill="#FF8F00"/>
<path opacity="0.44" d="M1.94538 22.7285C1.90632 22.6406 1.90632 22.541 1.94733 22.4551L6.92194 12.1387L7.7403 15.2148L2.50592 22.7754C2.3653 22.9863 2.04889 22.959 1.94538 22.7285Z" fill="#FFFDE7"/>
<path d="M8.13468 16.2481C10.4589 18.9668 13.1054 18.627 13.9862 17.9395C14.8691 17.25 15.5663 14.8809 13.2519 12.2071C10.8261 9.4063 8.07999 10.2051 7.44522 10.8106C6.81046 11.4161 6.00187 13.754 8.13468 16.2481Z" fill="url(#paint0_linear)"/>
<path d="M16.1173 17.3672C15.2696 16.6563 14.8185 16.7832 14.213 17.0352C13.4317 17.3594 12.2032 17.5996 10.5352 17.0352L11.0372 15.8262C12.0274 16.1602 12.7442 15.998 13.3634 15.6328C14.1602 15.1641 15.2501 14.5215 16.9454 15.9453C17.6524 16.5391 18.377 16.9336 18.9083 16.7539C19.295 16.625 19.5001 16.0488 19.6036 15.5898C19.6134 15.5488 19.629 15.4316 19.6407 15.3281C19.7345 14.6113 19.8907 13.0645 21.0431 12.2734C22.2755 11.4277 23.5704 11.4277 23.5704 11.4277L23.8048 13.7559C23.2091 13.668 22.795 13.7891 22.4454 13.9824C21.129 14.7148 22.2755 17.5273 20.2267 18.4727C18.256 19.3887 16.6446 17.8086 16.1173 17.3672Z" fill="#03A9F4"/>
<path d="M8.86725 14.3984L8.01959 13.6387C9.57623 11.9004 9.16607 10.623 8.86725 9.69336C8.8067 9.50586 8.75006 9.32812 8.71295 9.1582C8.58014 8.55664 8.55279 8.0332 8.59381 7.57617C7.99615 6.83203 7.73248 6.05273 7.7149 6C7.35162 4.90039 7.62506 3.82812 8.25201 2.82227C9.51959 0.78125 11.8145 0.78125 11.8145 0.78125L12.5801 2.83008C11.9981 2.80664 10.0899 2.83594 9.50396 3.75977C8.76373 4.92383 9.25006 5.64258 9.28521 5.72461C9.42779 5.53906 9.57232 5.39062 9.70123 5.27539C10.6368 4.44531 11.4493 4.32617 11.9669 4.37305C12.5489 4.42578 13.0762 4.71875 13.4532 5.19922C13.8653 5.72656 14.0352 6.41211 13.9044 7.03516C13.7774 7.64258 13.3731 8.15625 12.7657 8.48242C11.7051 9.05273 10.8223 8.97461 10.2305 8.77734C10.2344 8.79102 10.2364 8.80664 10.2403 8.82031C10.2618 8.91797 10.3047 9.05469 10.3555 9.21289C10.7012 10.2832 11.3438 11.9824 8.86725 14.3984ZM10.3028 7.06836C10.4161 7.15039 10.5352 7.21875 10.6583 7.26758C11.0684 7.43164 11.5157 7.37695 12.0235 7.10352C12.3223 6.94336 12.3575 6.77148 12.3692 6.71484C12.4044 6.54492 12.3458 6.32812 12.2188 6.16602C12.1075 6.02344 11.9786 5.94922 11.8243 5.93359C11.5313 5.9082 11.1348 6.09375 10.7383 6.44727C10.5489 6.61719 10.4044 6.82617 10.3028 7.06836Z" fill="#F44336"/>
<path d="M12.2597 14.7168L11.0468 14.6836C11.0468 14.6836 11.623 11.4297 13.4882 10.8828C13.8378 10.7812 14.2206 10.6777 14.6054 10.6211C14.8339 10.5859 15.1952 10.5332 15.373 10.4668C15.414 10.1602 15.2851 9.76953 15.1405 9.32617C15.0273 8.98242 14.9101 8.62891 14.8476 8.24219C14.7265 7.48828 14.9276 6.82227 15.414 6.36328C16.0077 5.80664 16.9667 5.62891 18.0487 5.875C18.6659 6.01562 19.121 6.31836 19.5214 6.58398C20.0937 6.96484 20.4276 7.1582 21.1269 6.6875C21.9726 6.11719 20.8671 3.88477 20.2792 2.5957L22.4726 1.68164C22.7675 2.32617 24.1913 5.64258 23.2519 7.53516C22.9355 8.17187 22.3905 8.59375 21.6757 8.75195C20.121 9.09961 19.2108 8.49414 18.5468 8.05273C18.2323 7.84375 17.9569 7.67969 17.6581 7.59375C15.5819 7.00195 18.4804 10.0566 17.123 11.4297C16.3085 12.252 14.3183 12.4687 14.1894 12.5C12.9081 12.8086 12.2597 14.7168 12.2597 14.7168Z" fill="#F48FB1"/>
<path d="M8.59176 7.57617C8.55465 8.00586 8.53707 8.26172 8.6484 8.82031C9.18551 9.21484 10.3554 9.21484 10.3554 9.21484C10.3046 9.05664 10.2597 8.91992 10.2402 8.82227C10.2363 8.80859 10.2343 8.79297 10.2304 8.7793C9.04098 8.18555 8.59176 7.57617 8.59176 7.57617Z" fill="#C92B27"/>
<path d="M6.15829 9.5L4.13876 8.50977L5.14462 7.05664L6.72861 8.10547L6.15829 9.5Z" fill="#FFC107"/>
<path d="M3.18164 6.75781C2.15039 6.61914 1.09961 5.74414 0.984375 5.64453L1.99805 4.45508C2.30469 4.71484 2.95508 5.15039 3.39063 5.20898L3.18164 6.75781Z" fill="#FB8C00"/>
<path d="M5.00191 4.1543L3.51753 3.66797C3.68745 3.14844 3.73238 2.58789 3.64449 2.04687L5.18745 1.79883C5.31441 2.58398 5.24995 3.39844 5.00191 4.1543Z" fill="#03A9F4"/>
<path d="M14.2721 2.99316L15.7985 2.65918L16.2393 4.67402L14.7129 5.00801L14.2721 2.99316Z" fill="#FB8C00"/>
<path d="M18.0586 3.4707L16.9844 2.33594C17.5469 1.80273 17.6758 1.10547 17.6758 1.09766L19.2188 1.34961C19.1992 1.47266 19.002 2.57813 18.0586 3.4707Z" fill="#FFC107"/>
<path d="M18.6554 9.4885L20.02 9.06213L20.4863 10.5535L19.1216 10.9799L18.6554 9.4885Z" fill="#FB8C00"/>
<path d="M19.0527 22.0762L17.5 21.8926C17.5664 21.3398 17.1543 20.6621 17.041 20.5117L18.291 19.5742C18.3848 19.6973 19.1992 20.8242 19.0527 22.0762Z" fill="#F44336"/>
<path d="M23.5098 20.0957C22.9258 20.0078 22.3282 19.9726 21.7383 19.9941L21.6856 18.4316C22.3712 18.4082 23.0645 18.4473 23.7422 18.5508L23.5098 20.0957Z" fill="#FB8C00"/>
<path d="M21.409 22.2464L22.5067 21.1345L24.0176 22.6261L22.9198 23.738L21.409 22.2464Z" fill="#F48FB1"/>
<path d="M18.1834 12.3694L19.3124 13.6602L18.0215 14.7891L16.8926 13.4983L18.1834 12.3694Z" fill="#F44336"/>

</svg>
