<svg width="60" height="46" viewBox="0 0 60 46" fill="none" xmlns="http://www.w3.org/2000/svg">
<path d="M21.6338 42.6734L3.33303 24.4701C3.22749 24.3651 3.14373 24.2404 3.08658 24.1029C3.02942 23.9655 3 23.8181 3 23.6693C3 23.5204 3.02942 23.3731 3.08658 23.2356C3.14373 23.0982 3.22749 22.9734 3.33303 22.8685L7.95315 18.2432C8.39463 17.8017 9.10818 17.8017 9.54966 18.2432L21.5979 30.2196C22.0394 30.6611 22.7581 30.6559 23.1996 30.2144L49.8217 3.3356C50.2632 2.88899 50.9819 2.88899 51.4285 3.33047L56.0538 7.95573C56.4952 8.3972 56.4952 9.11076 56.0589 9.55223L27.0548 38.8181L27.0599 38.8233L23.2355 42.6682C22.794 43.1097 22.0753 43.1097 21.6338 42.6734Z" fill="#2AD000" stroke="#2AD000" stroke-width="6" stroke-miterlimit="10"/>
</svg>
