<svg width="300" height="249" viewBox="0 0 300 249" fill="none" xmlns="http://www.w3.org/2000/svg">
<path d="M113.415 220.882H93.488V221.074H113.415V220.882Z" fill="#EBEBEB"/>
<path d="M41.4633 218.805H0V218.997H41.4633V218.805Z" fill="#EBEBEB"/>
<path d="M92.7217 228.002H72.5496V228.194H92.7217V228.002Z" fill="#EBEBEB"/>
<path d="M187.466 226.715H157.706V226.906H187.466V226.715Z" fill="#EBEBEB"/>
<path d="M202.481 226.715H194.288V226.906H202.481V226.715Z" fill="#EBEBEB"/>
<path d="M209.739 128.146H200.266L202.565 109.706H212.045L209.739 128.146Z" fill="#F0F0F0"/>
<path d="M211.839 128.146H202.358L204.665 109.706H214.138L211.839 128.146Z" fill="#F5F5F5"/>
<path d="M212.988 118.926H203.515L204.665 109.706H214.138L212.988 118.926Z" fill="#F0F0F0"/>
<path d="M244.956 114.411L240.12 75.73C240.11 75.6677 240.079 75.6109 240.031 75.5701C239.983 75.5292 239.922 75.5071 239.859 75.5078H175.48C175.443 75.5075 175.406 75.5151 175.372 75.5301C175.339 75.545 175.308 75.567 175.284 75.5946C175.259 75.6221 175.241 75.6546 175.229 75.6898C175.218 75.7251 175.215 75.7623 175.219 75.799L180.055 114.48C180.064 114.543 180.096 114.599 180.144 114.64C180.192 114.681 180.253 114.703 180.316 114.702H244.695C244.732 114.703 244.769 114.695 244.802 114.68C244.836 114.665 244.866 114.643 244.891 114.616C244.916 114.588 244.934 114.556 244.945 114.52C244.957 114.485 244.96 114.448 244.956 114.411Z" fill="#E6E6E6"/>
<path d="M238.088 114.725L221.074 75.5231H206.152L223.166 114.725H238.088Z" fill="#EBEBEB"/>
<path d="M220.292 114.725L203.278 75.5231H197.905L214.92 114.725H220.292Z" fill="#EBEBEB"/>
<path d="M220.438 128.145H205.002V127.954C205.002 127.547 205.164 127.157 205.451 126.87C205.739 126.582 206.129 126.421 206.535 126.421H218.905C219.312 126.421 219.702 126.582 219.989 126.87C220.276 127.157 220.438 127.547 220.438 127.954V128.145Z" fill="#F5F5F5"/>
<path d="M206.811 128.145H196.342V127.954C196.342 127.547 196.503 127.157 196.79 126.87C197.078 126.582 197.468 126.421 197.874 126.421H205.27C205.677 126.421 206.067 126.582 206.354 126.87C206.642 127.157 206.803 127.547 206.803 127.954V128.145H206.811Z" fill="#F0F0F0"/>
<path d="M151.399 248.197C233.469 248.197 300 244.313 300 239.522C300 234.73 233.469 230.846 151.399 230.846C69.3286 230.846 2.79761 234.73 2.79761 239.522C2.79761 244.313 69.3286 248.197 151.399 248.197Z" fill="#F5F5F5"/>
<path d="M35.7252 56.1521L34.9592 56.1771L35.2926 66.388L36.0586 66.363L35.7252 56.1521Z" fill="#0466C8"/>
<path d="M35.4379 47.3475L34.6719 47.3726L34.8304 52.2291L35.5964 52.2041L35.4379 47.3475Z" fill="#0466C8"/>
<path d="M45.786 121.209H192.065C192.847 121.213 193.621 121.058 194.342 120.755C195.063 120.451 195.714 120.005 196.258 119.443C196.801 118.881 197.225 118.214 197.504 117.484C197.784 116.754 197.912 115.974 197.882 115.193L194.625 15.3821C194.56 13.7741 193.879 12.2527 192.724 11.1327C191.568 10.0128 190.026 9.38009 188.417 9.36566H42.1379C41.3556 9.36203 40.5807 9.51661 39.8598 9.82012C39.1388 10.1236 38.4867 10.5698 37.9426 11.1318C37.3984 11.6938 36.9736 12.3601 36.6936 13.0905C36.4136 13.8209 36.2841 14.6004 36.3131 15.3821L39.5703 115.178C39.6333 116.789 40.3139 118.314 41.4712 119.437C42.6285 120.56 44.1735 121.195 45.786 121.209Z" fill="#0466C8"/>
<path d="M46.2535 121.209H192.532C193.315 121.213 194.09 121.058 194.811 120.755C195.531 120.451 196.184 120.005 196.728 119.443C197.272 118.881 197.697 118.215 197.977 117.485C198.257 116.754 198.386 115.975 198.357 115.193L195.085 15.3821C195.018 13.7734 194.336 12.252 193.179 11.1322C192.022 10.0124 190.479 9.38001 188.869 9.36566H42.6053C41.8234 9.36199 41.0489 9.5166 40.3283 9.8202C39.6078 10.1238 38.9561 10.5701 38.4126 11.1322C37.8691 11.6943 37.445 12.3607 37.1658 13.091C36.8866 13.8214 36.7582 14.6007 36.7882 15.3821L40.0455 115.178C40.1065 116.788 40.7855 118.314 41.9415 119.437C43.0976 120.56 44.6417 121.195 46.2535 121.209Z" fill="#0466C8"/>
<path opacity="0.5" d="M46.2535 121.209H192.532C193.315 121.213 194.09 121.058 194.811 120.755C195.531 120.451 196.184 120.005 196.728 119.443C197.272 118.881 197.697 118.215 197.977 117.485C198.257 116.754 198.386 115.975 198.357 115.193L195.085 15.3821C195.018 13.7734 194.336 12.252 193.179 11.1322C192.022 10.0124 190.479 9.38001 188.869 9.36566H42.6053C41.8234 9.36199 41.0489 9.5166 40.3283 9.8202C39.6078 10.1238 38.9561 10.5701 38.4126 11.1322C37.8691 11.6943 37.445 12.3607 37.1658 13.091C36.8866 13.8214 36.7582 14.6007 36.7882 15.3821L40.0455 115.178C40.1065 116.788 40.7855 118.314 41.9415 119.437C43.0976 120.56 44.6417 121.195 46.2535 121.209Z" fill="white"/>
<path opacity="0.5" d="M188.516 12.3701H42.2297H41.7392C37.9914 12.6766 38.5279 18.3635 42.3063 18.3635H188.838C192.609 18.3635 192.778 12.6766 189.007 12.3701C188.846 12.3777 188.677 12.3701 188.516 12.3701Z" fill="#0466C8"/>
<path d="M45.924 15.3821C45.9302 15.5607 45.9003 15.7387 45.8359 15.9054C45.7716 16.0721 45.6742 16.2241 45.5497 16.3523C45.4251 16.4804 45.2759 16.582 45.1111 16.6511C44.9462 16.7201 44.7691 16.7551 44.5904 16.754C44.2221 16.7523 43.8684 16.6089 43.603 16.3534C43.3375 16.098 43.1807 15.7501 43.1649 15.3821C43.1576 15.2028 43.1868 15.024 43.2507 14.8564C43.3145 14.6887 43.4117 14.5358 43.5364 14.4068C43.6611 14.2779 43.8106 14.1755 43.976 14.106C44.1414 14.0365 44.3191 14.0013 44.4985 14.0025C44.8687 14.0023 45.2245 14.1462 45.4906 14.4036C45.7566 14.6611 45.9121 15.012 45.924 15.3821Z" fill="#FAFAFA"/>
<path d="M50.6142 15.3821C50.6215 15.5609 50.5923 15.7394 50.5284 15.9066C50.4644 16.0738 50.3671 16.2263 50.2423 16.3547C50.1175 16.483 49.9679 16.5846 49.8026 16.6533C49.6372 16.7219 49.4596 16.7562 49.2806 16.754C48.9128 16.7505 48.5602 16.6064 48.2952 16.3513C48.0301 16.0963 47.8727 15.7495 47.8551 15.3821C47.8478 15.2028 47.877 15.024 47.9409 14.8564C48.0047 14.6887 48.1019 14.5358 48.2266 14.4068C48.3513 14.2779 48.5008 14.1755 48.6662 14.106C48.8315 14.0365 49.0093 14.0013 49.1887 14.0025C49.5589 14.0023 49.9147 14.1462 50.1808 14.4036C50.4468 14.6611 50.6023 15.012 50.6142 15.3821Z" fill="#FAFAFA"/>
<path d="M54.9326 16.3688C55.4578 15.8345 55.4358 14.9612 54.8834 14.4182C54.331 13.8751 53.4574 13.868 52.9322 14.4023C52.407 14.9366 52.429 15.8099 52.9814 16.353C53.5338 16.896 54.4074 16.9031 54.9326 16.3688Z" fill="#FAFAFA"/>
<path d="M49.0892 111.246H189.053C189.336 111.248 189.617 111.193 189.878 111.084C190.14 110.974 190.376 110.813 190.573 110.609C190.77 110.406 190.924 110.164 191.025 109.9C191.126 109.635 191.172 109.352 191.161 109.069L188.478 26.978C188.447 26.3976 188.198 25.8504 187.779 25.4466C187.361 25.0427 186.806 24.8122 186.225 24.8014H46.2688C45.9855 24.7991 45.7047 24.8543 45.4434 24.9638C45.1821 25.0733 44.9457 25.2346 44.7486 25.4382C44.5515 25.6417 44.3979 25.8831 44.2969 26.1478C44.1959 26.4125 44.1497 26.695 44.1611 26.978L46.8359 109.046C46.8612 109.631 47.1083 110.184 47.5269 110.592C47.9456 111.001 48.5043 111.235 49.0892 111.246Z" fill="white"/>
<g opacity="0.3">
<path opacity="0.3" d="M151.805 101.083H149.245V100.363H151.054L150.993 98.554L151.721 98.531L151.805 101.083Z" fill="#0466C8"/>
<path opacity="0.3" d="M145.175 101.091H141.105V100.324H145.175V101.091ZM137.036 101.091H133.004V100.324H137.074L137.036 101.091ZM128.896 101.091H124.827V100.324H128.896V101.091ZM120.757 101.091H116.687V100.324H120.742L120.757 101.091ZM112.625 101.091H108.548V100.324H112.625V101.091ZM104.486 101.091H100.416V100.324H104.486V101.091ZM96.3465 101.091H92.2769V100.324H96.3465V101.091Z" fill="#0466C8"/>
<path opacity="0.3" d="M88.2072 101.083H85.6704L85.5938 98.554L86.3142 98.531L86.3755 100.363H88.2072V101.083Z" fill="#0466C8"/>
<path opacity="0.3" d="M85.4867 94.4843L85.3564 90.4146H86.1228L86.2531 94.4843H85.4867ZM85.2261 86.3449L85.0881 82.2752H85.8162L85.9465 86.3449H85.2261ZM84.9578 78.2055L84.8275 74.1358H85.548L85.6859 78.2055H84.9578ZM84.6896 70.0738L84.5593 66.0041H85.2874L85.4177 70.0738H84.6896ZM84.429 61.9344L84.291 57.8647H85.0191L85.1494 61.9344H84.429ZM84.1607 53.7874L84.0305 49.7254H84.7509L84.8888 53.795L84.1607 53.7874ZM83.8925 45.6557L83.7622 41.586H84.4903L84.6206 45.6557H83.8925Z" fill="#0466C8"/>
<path opacity="0.3" d="M83.6012 37.5086L83.5168 34.9564H86.069V35.6845H84.2679L84.3216 37.4856L83.6012 37.5086Z" fill="#0466C8"/>
<path opacity="0.3" d="M143.045 35.6845H138.975V34.9564H143.045V35.6845ZM134.905 35.6845H130.836V34.9564H134.905V35.6845ZM126.766 35.6845H122.696V34.9564H126.766V35.6845ZM118.627 35.6845H114.557V34.9564H118.627V35.6845ZM110.487 35.6845H106.417V34.9564H110.487V35.6845ZM102.348 35.6845H98.2781V34.9564H102.348V35.6845ZM94.2084 35.6845H90.1387V34.9564H94.2084V35.6845Z" fill="#0466C8"/>
<path opacity="0.3" d="M149 37.5086L148.938 35.6845H147.114V34.9564H149.643L149.728 37.4856L149 37.5086Z" fill="#0466C8"/>
<path opacity="0.3" d="M150.862 94.4843L150.732 90.4146H151.452L151.59 94.4843H150.862ZM150.632 86.3449L150.502 82.2752H151.23L151.36 86.3449H150.632ZM150.372 78.2132L150.234 74.1435H150.962L151.092 78.2132H150.372ZM150.103 70.0738L149.973 66.0041H150.694L150.831 70.0738H150.103ZM149.835 61.9344L149.705 57.8647H150.433L150.563 61.9344H149.835ZM149.575 53.795L149.437 49.7254H150.203L150.333 53.795H149.575ZM149.306 45.6557L149.176 41.586H149.896L150.034 45.6557H149.306Z" fill="#0466C8"/>
</g>
<path d="M132.1 78.3895H105.344C102.863 78.3697 100.484 77.3955 98.7018 75.6687C96.9194 73.942 95.8702 71.5954 95.7718 69.1158C95.6845 66.8879 96.4296 64.7073 97.8619 62.9986C99.2943 61.29 101.311 60.1757 103.52 59.8727C104.099 57.6585 105.397 55.6991 107.21 54.3022C109.023 52.9054 111.249 52.1501 113.537 52.1549C115.421 52.1578 117.273 52.6459 118.913 53.5722C120.553 54.4984 121.928 55.8316 122.903 57.4432C123.744 57.1823 124.62 57.0506 125.501 57.0523C127.784 57.0737 129.979 57.9297 131.673 59.4589C133.368 60.988 134.444 63.0845 134.698 65.3527C135.867 65.9109 136.863 66.7762 137.578 67.8561C138.293 68.936 138.702 70.1899 138.76 71.484C138.795 72.3792 138.649 73.2723 138.33 74.1094C138.011 74.9466 137.525 75.7104 136.903 76.3549C136.281 76.9994 135.534 77.5113 134.709 77.8596C133.883 78.208 132.996 78.3856 132.1 78.3818V78.3895ZM113.537 53.9407C111.549 53.9286 109.618 54.6111 108.079 55.8704C106.54 57.1297 105.489 58.8868 105.107 60.8384L104.976 61.5206L104.287 61.5665C102.409 61.6813 100.651 62.5269 99.3885 63.9222C98.1264 65.3175 97.4609 67.1515 97.5346 69.0315C97.6134 71.0488 98.4665 72.9581 99.9167 74.3626C101.367 75.7672 103.303 76.5588 105.321 76.573H132.077C132.733 76.5788 133.382 76.4513 133.987 76.1982C134.592 75.9451 135.138 75.5717 135.594 75.1008C136.05 74.6298 136.406 74.0711 136.639 73.4586C136.872 72.8461 136.979 72.1926 136.952 71.5377C136.903 70.4957 136.551 69.4905 135.94 68.6452C135.329 67.7999 134.485 67.1511 133.51 66.7782L132.958 66.5636V65.9735C132.861 64.0549 132.035 62.246 130.649 60.9157C129.263 59.5854 127.422 58.8341 125.501 58.8151C124.587 58.813 123.681 58.9901 122.834 59.3363L122.068 59.6428L121.692 58.9224C120.918 57.4275 119.748 56.1738 118.31 55.2981C116.872 54.4223 115.221 53.9581 113.537 53.956V53.9407Z" fill="#0466C8"/>
<path d="M124.39 69.7136L117.009 62.5629L110.096 69.7136H114.143L114.388 77.1019H120.588L120.343 69.7136H124.39Z" fill="#0466C8"/>
<path d="M241.07 40.6816C241.775 41.7009 242.342 42.5593 242.925 43.5097C243.507 44.4601 244.059 45.3798 244.595 46.3378C245.668 48.2385 246.665 50.1699 247.577 52.1932C248.516 54.2112 249.345 56.2784 250.06 58.3859C250.824 60.5487 251.428 62.7645 251.869 65.0155L252.16 66.7629L252.198 66.9851L252.244 67.2611C252.244 67.5293 252.306 67.7592 252.313 68.0275C252.329 68.3287 252.329 68.6306 252.313 68.9319L252.275 69.4147L252.191 69.9512C252.126 70.3319 252.029 70.7062 251.899 71.0702C251.759 71.4749 251.579 71.8651 251.363 72.2351C250.933 72.9854 250.357 73.6421 249.669 74.1665C248.657 74.9362 247.469 75.4419 246.213 75.638C245.387 75.7732 244.549 75.8144 243.714 75.7607C243.032 75.729 242.354 75.6496 241.683 75.5231C240.498 75.2951 239.329 74.9957 238.181 74.6264C236.082 73.9231 234.033 73.0781 232.049 72.0972C230.092 71.1535 228.193 70.094 226.362 68.9242L228.57 64.0344C232.377 65.0638 236.235 65.8977 240.127 66.533C240.988 66.663 241.855 66.7373 242.725 66.7552C243.281 66.803 243.841 66.7405 244.373 66.5713C244.419 66.533 244.243 66.4793 243.737 66.8165C243.317 67.1235 242.997 67.5474 242.817 68.0352C242.769 68.1546 242.731 68.2776 242.702 68.403L242.656 68.6483C242.659 68.6917 242.659 68.7352 242.656 68.7786C242.656 68.8169 242.656 68.7786 242.656 68.7786V68.6789V68.518L242.312 67.2304C241.2 63.633 239.758 60.1462 238.004 56.8148C237.138 55.0826 236.188 53.3735 235.222 51.6797C234.739 50.829 234.241 49.9936 233.743 49.1582C233.245 48.3228 232.708 47.4491 232.264 46.7517L241.07 40.6816Z" fill="#FFB573"/>
<path d="M229.413 64.4483L226.086 61.1374L222.783 68.5027C222.783 68.5027 225.91 70.2424 228.692 68.9778L229.413 64.4483Z" fill="#FFB573"/>
<path d="M221.174 58.4932L218.721 64.7165L222.776 68.5026L226.087 61.1297L221.174 58.4932Z" fill="#FFB573"/>
<path d="M232.395 43.1465L168.584 31.9064L157.344 95.7172L221.155 106.957L232.395 43.1465Z" fill="#0466C8"/>
<path opacity="0.6" d="M232.395 43.1465L168.584 31.9064L157.344 95.7172L221.155 106.957L232.395 43.1465Z" fill="white"/>
<path d="M228.739 45.7009L171.14 35.5551L160.995 93.1539L218.593 103.3L228.739 45.7009Z" fill="white"/>
<path opacity="0.3" d="M198.25 64.9757C203.135 61.554 204.321 54.8202 200.9 49.9353C197.478 45.0505 190.744 43.8643 185.859 47.286C180.974 50.7077 179.788 57.4415 183.21 62.3264C186.632 67.2112 193.365 68.3974 198.25 64.9757Z" fill="#0466C8"/>
<path opacity="0.2" d="M205.554 71.8596L186.248 85.3715L177.373 72.7026L162.803 82.9037L160.994 93.1584L218.591 103.306L220.4 93.0511L205.554 71.8596Z" fill="#0466C8"/>
<path d="M208.719 17.4667C208.719 17.9802 208.474 18.4017 208.137 18.4094C207.8 18.4171 207.524 18.0032 207.516 17.4974C207.508 16.9915 207.769 16.5623 208.099 16.5623C208.428 16.5623 208.712 16.9609 208.719 17.4667Z" fill="#263238"/>
<path d="M208.52 18.3941C207.942 19.9649 207.153 21.4499 206.175 22.8086C206.528 23.0496 206.93 23.2107 207.353 23.2809C207.775 23.351 208.207 23.3285 208.62 23.2149L208.52 18.3941Z" fill="#FF5652"/>
<path d="M210.52 14.6003C210.441 14.6161 210.358 14.5995 210.29 14.5543C209.991 14.3269 209.64 14.1765 209.268 14.1163C208.897 14.0562 208.516 14.0882 208.16 14.2094C208.086 14.2399 208.002 14.2397 207.928 14.2088C207.854 14.1779 207.796 14.1188 207.765 14.0447C207.735 13.9705 207.735 13.8872 207.766 13.8132C207.797 13.7392 207.856 13.6804 207.93 13.65C208.381 13.4998 208.862 13.459 209.333 13.5309C209.803 13.6029 210.249 13.7855 210.635 14.0638C210.7 14.1088 210.745 14.1775 210.759 14.255C210.773 14.3325 210.756 14.4125 210.712 14.4777C210.666 14.5416 210.598 14.5855 210.52 14.6003Z" fill="#263238"/>
<path d="M223.496 19.4135C223.174 24.1193 223.542 33.6152 227.136 36.2747C227.136 36.2747 226.255 40.1068 217.725 41.1875C208.352 42.3601 212.659 37.0948 212.659 37.0948C217.625 35.2247 217.02 31.4463 215.678 27.9897L223.496 19.4135Z" fill="#FFB573"/>
<path d="M246.734 222.913H246.68C246.567 222.854 246.475 222.761 246.417 222.647C246.359 222.533 246.339 222.404 246.358 222.277C246.36 222.176 246.385 222.078 246.43 221.987C246.475 221.897 246.539 221.818 246.619 221.756C247.339 221.143 249.439 221.411 249.531 221.419C249.559 221.424 249.585 221.437 249.607 221.456C249.629 221.475 249.645 221.499 249.654 221.526C249.662 221.553 249.662 221.582 249.654 221.61C249.646 221.637 249.63 221.661 249.608 221.679C249.117 222.078 247.492 223.174 246.734 222.913ZM249.133 221.656C248.42 221.603 247.24 221.595 246.833 221.955C246.787 221.992 246.75 222.039 246.723 222.092C246.697 222.145 246.682 222.203 246.68 222.262C246.68 222.545 246.787 222.599 246.826 222.622C247.201 222.814 248.358 222.231 249.133 221.656Z" fill="#0466C8"/>
<path d="M248.45 221.465C247.684 221.212 246.918 220.775 246.803 220.331C246.772 220.222 246.78 220.107 246.825 220.003C246.869 219.9 246.948 219.815 247.048 219.763C247.142 219.699 247.249 219.656 247.361 219.636C247.474 219.616 247.589 219.62 247.699 219.648C248.627 219.84 249.592 221.403 249.638 221.465C249.654 221.487 249.662 221.514 249.662 221.541C249.662 221.569 249.654 221.595 249.638 221.618C249.626 221.642 249.608 221.662 249.585 221.676C249.562 221.689 249.535 221.696 249.508 221.695C249.147 221.668 248.791 221.59 248.45 221.465ZM247.745 219.97H247.638C247.566 219.951 247.492 219.949 247.419 219.962C247.346 219.975 247.277 220.004 247.216 220.047C247.056 220.154 247.079 220.239 247.086 220.277C247.209 220.683 248.404 221.25 249.209 221.396C248.857 220.799 248.352 220.306 247.745 219.97Z" fill="#0466C8"/>
<path d="M200.197 233.39C199.384 233.39 198.603 233.275 198.334 232.915C198.267 232.818 198.23 232.703 198.23 232.586C198.23 232.468 198.267 232.353 198.334 232.256C198.387 232.17 198.456 232.095 198.538 232.036C198.619 231.977 198.712 231.935 198.809 231.911C199.859 231.62 202.074 232.877 202.166 232.93C202.193 232.947 202.214 232.971 202.226 233C202.238 233.029 202.242 233.061 202.235 233.091C202.231 233.121 202.218 233.149 202.197 233.171C202.177 233.193 202.15 233.208 202.12 233.214C201.485 233.326 200.842 233.385 200.197 233.39ZM199.193 232.164C199.096 232.151 198.998 232.151 198.901 232.164C198.841 232.178 198.784 232.204 198.733 232.241C198.683 232.278 198.641 232.325 198.61 232.379C198.503 232.563 198.541 232.655 198.61 232.708C198.901 233.114 200.503 233.122 201.676 232.961C200.909 232.534 200.065 232.263 199.193 232.164Z" fill="#0466C8"/>
<path d="M202.105 233.206H202.044C201.277 232.869 199.745 231.497 199.883 230.784C199.883 230.616 200.028 230.409 200.442 230.363C200.59 230.348 200.74 230.364 200.883 230.408C201.025 230.453 201.157 230.526 201.27 230.624C202.074 231.283 202.251 232.984 202.251 233.061C202.254 233.086 202.249 233.112 202.238 233.135C202.228 233.158 202.211 233.177 202.189 233.191C202.164 233.207 202.134 233.212 202.105 233.206ZM200.572 230.639H200.45C200.181 230.639 200.166 230.777 200.158 230.807C200.089 231.237 201.116 232.34 201.891 232.777C201.822 232.058 201.533 231.378 201.063 230.83C200.922 230.715 200.747 230.65 200.565 230.647L200.572 230.639Z" fill="#0466C8"/>
<path d="M209.057 233.061H202.734L202.105 218.422H208.428L209.057 233.061Z" fill="#FFB573"/>
<path d="M256.337 219.71L250.474 221.319L242.971 207.593L248.834 205.983L256.337 219.71Z" fill="#FFB573"/>
<path d="M249.593 220.683L255.923 217.441C256.036 217.386 256.163 217.371 256.285 217.398C256.408 217.424 256.518 217.491 256.598 217.587L260.269 222.017C260.357 222.126 260.419 222.253 260.451 222.39C260.483 222.526 260.484 222.668 260.454 222.805C260.424 222.942 260.363 223.07 260.277 223.18C260.19 223.291 260.08 223.38 259.955 223.442C257.732 224.53 256.59 224.975 253.823 226.378C252.114 227.251 247.025 231.037 244.458 231.742C241.89 232.448 240.894 229.957 241.882 229.443C245.127 227.775 247.622 224.946 248.872 221.518C249 221.16 249.257 220.862 249.593 220.683Z" fill="#263238"/>
<path d="M202.749 232.333H209.647C209.771 232.333 209.892 232.376 209.99 232.454C210.087 232.531 210.155 232.64 210.183 232.762L211.432 238.387C211.464 238.523 211.464 238.664 211.433 238.8C211.401 238.936 211.339 239.063 211.251 239.171C211.163 239.279 211.051 239.365 210.925 239.423C210.798 239.482 210.66 239.51 210.52 239.506C208.03 239.468 204.427 239.322 201.323 239.322C197.66 239.322 194.502 239.522 190.21 239.522C187.612 239.522 186.892 236.893 187.98 236.655C192.923 235.575 196.962 235.46 201.239 232.823C201.688 232.524 202.21 232.354 202.749 232.333Z" fill="#263238"/>
<path d="M229.942 47.9855C230.601 49.6793 231.329 51.3348 232.065 52.8906C233.321 55.5808 234.578 57.926 235.49 59.5432C236.303 61.007 236.839 61.8424 236.839 61.8424L250.635 54.9906C250.635 54.9906 245.071 38.9954 239.261 37.2097C233.321 35.4699 226.96 40.3597 229.942 47.9855Z" fill="#263238"/>
<path opacity="0.2" d="M236.065 49.5644C234.862 50.4458 234.004 52.8293 233.39 55.6268C234.157 57.1596 234.923 58.5009 235.49 59.5432C236.303 61.007 236.839 61.8424 236.839 61.8424L238.418 61.076C238.387 57.1226 237.588 53.2129 236.065 49.5644Z" fill="black"/>
<path d="M200.741 58.1866C200.741 60.3326 200.795 62.7009 200.91 65.3144C201.224 72.4037 201.998 81.2406 203.477 92.2234H237.292C237.529 87.0347 234.264 61.7045 239.277 37.2404C235.535 36.5237 231.751 36.0475 227.949 35.8148C223.16 35.5388 218.36 35.5388 213.571 35.8148C210.289 36.1525 207.038 36.7393 203.845 37.5699C203.845 37.5699 200.733 41.0878 200.741 58.1866Z" fill="#263238"/>
<path d="M209.44 48.1465C208.937 49.1986 208.377 50.2221 207.761 51.2122C207.202 52.1166 206.635 52.9903 206.052 53.8334C204.887 55.5195 203.669 57.1443 202.389 58.7308C199.812 61.9511 196.958 64.9389 193.858 67.6596C192.206 69.1084 190.434 70.4159 188.562 71.5683L187.796 72.0129L187.597 72.1202L187.321 72.2581L186.761 72.5264C186.042 72.8659 185.286 73.123 184.508 73.2928C183.131 73.5694 181.721 73.6417 180.323 73.5074C177.991 73.2296 175.724 72.5475 173.625 71.4917C172.654 71.016 171.714 70.4784 170.812 69.8822C169.898 69.2899 169.025 68.637 168.199 67.9278L170.912 63.3293C174.23 64.203 177.971 64.9848 180.546 64.6169C181.078 64.5661 181.597 64.4207 182.079 64.1877C182.237 64.1102 182.386 64.0151 182.523 63.9041L182.592 63.8352H182.638L182.745 63.7508L183.213 63.429C184.525 62.4294 185.769 61.3438 186.938 60.1793C189.44 57.6471 191.767 54.9482 193.904 52.1013C195 50.6681 196.058 49.1965 197.077 47.7173C197.576 46.9509 198.074 46.2458 198.534 45.5177C198.993 44.7896 199.453 44.0462 199.691 43.5787L209.44 48.1465Z" fill="#FFB573"/>
<path d="M172.261 63.9654L166.428 61.1987L165.899 69.0238C165.899 69.0238 170.437 69.7902 172.836 68.0351L172.261 63.9654Z" fill="#FFB573"/>
<path d="M159.078 62.5246L161.324 68.4873L165.899 69.0161L166.428 61.1986L159.078 62.5246Z" fill="#FFB573"/>
<path d="M213.617 44.0002C213.417 50.0473 200.971 63.9655 200.971 63.9655L187.827 55.3969C187.827 55.3969 192.019 47.5794 197.384 41.9309C205.577 33.4236 213.854 36.7499 213.617 44.0002Z" fill="#263238"/>
<path opacity="0.2" d="M202.105 218.422L202.427 225.971H208.758L208.436 218.422H202.105Z" fill="black"/>
<path opacity="0.2" d="M248.834 205.983L242.971 207.593L246.841 214.674L252.704 213.057L248.834 205.983Z" fill="black"/>
<path d="M225.742 16.0335C225.489 22.3028 225.665 25.997 222.569 29.2696C217.909 34.1977 210.122 31.4922 208.497 25.2765C207.033 19.674 207.692 10.362 213.77 7.74085C215.107 7.15536 216.572 6.92187 218.025 7.06261C219.478 7.20336 220.871 7.71365 222.071 8.5449C223.271 9.37616 224.238 10.5007 224.881 11.8115C225.523 13.1224 225.82 14.5758 225.742 16.0335Z" fill="#FFB573"/>
<path d="M213.226 19.0225C210.965 17.4131 208.75 14.0945 208.926 11.6266C206.834 11.5423 205.431 8.0934 206.581 5.57954C207.301 7.19668 209.792 6.00873 210.766 4.72881C210.245 3.49487 210.329 1.44853 213.908 0C213.609 1.04233 213.762 2.79743 217.357 1.53284C221.718 0 229.382 1.027 227.136 6.21567C230.202 6.77516 234.195 13.1134 230.808 16.4474C227.42 19.7813 226.723 25.1692 223.825 25.7211C220.928 26.2729 213.395 26.4645 213.226 19.0225Z" fill="#263238"/>
<path d="M225.098 6.00874C226.317 5.5015 227.671 5.42 228.942 5.7774C230.213 6.1348 231.327 6.91022 232.103 7.97844C229.898 6.92576 227.528 6.25951 225.098 6.00874Z" fill="#263238"/>
<path d="M214.874 18.7543C214.811 20.1471 214.291 21.4803 213.394 22.5481C212.199 23.943 210.888 23.1306 210.62 21.4828C210.382 20.0036 210.72 17.4897 212.207 16.7003C213.693 15.9109 214.927 17.0758 214.874 18.7543Z" fill="#FFB573"/>
<path d="M215.471 92.2234C215.471 92.2234 212.49 140.071 218.146 157.714C227.098 185.658 243.07 214.207 243.07 214.207L254.49 210.773C254.49 210.773 241.928 180.638 237.797 157.124C234.088 135.978 237.291 109.521 237.291 92.2463L215.471 92.2234Z" fill="#0466C8"/>
<path opacity="0.2" d="M215.012 102.915C218.2 101.988 220.691 102.34 221.335 105.176C223.021 112.587 217.962 132.139 215.441 141.083C214.399 128.207 214.636 112.878 215.012 102.915Z" fill="black"/>
<path d="M239.844 210.934C239.798 210.934 242.825 214.467 242.825 214.467L255.302 210.712L253.716 206.497L239.844 210.934Z" fill="#263238"/>
<path d="M203.515 92.2234C203.515 92.2234 193.989 132.591 193.314 151.874C192.548 173.502 200.112 224.507 200.112 224.507H210.842C210.842 224.507 212.161 173.104 212.636 153.407C213.157 131.947 225.757 92.2234 225.757 92.2234H203.515Z" fill="#0466C8"/>
<path d="M198.013 220.246C197.967 220.246 198.618 224.691 198.618 224.691H211.647L212 220.721L198.013 220.246Z" fill="#263238"/>
<path d="M208.206 34.3356C209.662 33.8298 220.706 32.4273 228.723 32.8565C233.321 33.1017 235.881 33.6229 237.751 34.5043C239.621 35.3856 236.272 39.9612 234.724 40.5207C235.352 42.2681 231.865 44.4984 229.88 45.556C229.114 47.1962 221.243 48.7137 216.644 45.1882C213.111 42.475 204.075 35.7689 208.206 34.3356Z" fill="#0466C8"/>
</svg>
