<svg width="300" height="223" viewBox="0 0 300 223" fill="none" xmlns="http://www.w3.org/2000/svg">
<path d="M289.003 187.712H270.072V187.977H289.003V187.712Z" fill="#D1E3FF"/>
<path d="M213.281 192.23H144.379V192.495H213.281V192.23Z" fill="#D1E3FF"/>
<path d="M138.27 192.23H126.371V192.495H138.27V192.23Z" fill="#D1E3FF"/>
<path d="M67.4385 187.309H35.8138V187.574H67.4385V187.309Z" fill="#D1E3FF"/>
<path d="M160.223 179.652C160.223 179.652 158.442 166.926 139.161 160.308C141.465 162.936 143.202 166.009 144.266 169.337C145.329 172.665 145.697 176.176 145.344 179.652H160.223Z" fill="#EEF5FF"/>
<path d="M287.179 87.0581L278.44 148.696L277.57 154.868H271.971L272.84 148.696L281.579 87.0581H287.179Z" fill="#D1E3FF"/>
<path d="M47.0765 87.0581L38.3378 148.696L37.4682 154.868H31.8687L32.7383 148.696L41.477 87.0581H47.0765Z" fill="#D1E3FF"/>
<path d="M251.29 148.696L250.421 154.868L245.701 215.54H240.102L244.81 154.868L245.68 148.696H251.29Z" fill="#D1E3FF"/>
<path d="M11.1779 148.696L10.2977 154.868L5.58895 215.54H0L4.69811 154.868L5.57834 148.696H11.1779Z" fill="#D1E3FF"/>
<path d="M39.4725 148.696L40.3422 154.868L45.0721 215.54H50.6716L45.9629 154.868L45.0827 148.696H39.4725Z" fill="#D1E3FF"/>
<path d="M279.596 148.696L280.465 154.868L285.174 215.54H290.774L286.065 154.868L285.195 148.696H279.596Z" fill="#D1E3FF"/>
<path d="M295.238 95.6377H38.6134L43.3857 78.4679H300L295.238 95.6377Z" fill="#197BDD"/>
<path d="M289.384 95.6377H32.7594L37.5211 78.4679H294.146L289.384 95.6377Z" fill="#4EA4F9"/>
<path d="M291.664 117.05H35.0397L39.812 99.8798H296.426L291.664 117.05Z" fill="#197BDD"/>
<path d="M285.81 117.05H29.1855L33.9473 99.8798H290.572L285.81 117.05Z" fill="#4EA4F9"/>
<path d="M288.09 138.483H31.4656L36.2379 121.313H292.852L288.09 138.483Z" fill="#197BDD"/>
<path d="M282.236 138.483H25.6115L30.3732 121.313H286.998L282.236 138.483Z" fill="#4EA4F9"/>
<path d="M257.759 148.696H2.26941V154.868H257.759V148.696Z" fill="#4EA4F9"/>
<path d="M292.863 148.696H257.749V154.868H292.863V148.696Z" fill="#197BDD"/>
<path d="M99.5193 218.085H107.187L108.152 200.332H100.484L99.5193 218.085Z" fill="#FF8B7B"/>
<path d="M99.095 213.546H107.706C107.857 213.547 108.002 213.6 108.116 213.697C108.231 213.794 108.307 213.929 108.332 214.077L109.488 220.885C109.512 221.055 109.5 221.229 109.451 221.393C109.403 221.558 109.319 221.711 109.207 221.841C109.094 221.97 108.955 222.074 108.798 222.146C108.642 222.217 108.472 222.253 108.3 222.253C105.288 222.2 103.846 222.02 100.049 222.02C97.7269 222.02 90.0276 222.264 86.8142 222.264C83.6008 222.264 83.3357 219.082 84.6931 218.796C90.6639 217.502 95.8604 215.72 97.8436 214.024C98.1914 213.722 98.6346 213.553 99.095 213.546Z" fill="#14365B"/>
<path d="M173.204 66.3886C170.521 72.0836 167.721 77.6725 164.816 83.2402C161.91 88.808 158.919 94.3227 155.738 99.8056L154.529 101.863L154.221 102.383L153.754 103.114C153.426 103.634 153.118 103.984 152.789 104.429C151.624 105.835 150.344 107.14 148.961 108.332C146.477 110.488 143.87 112.499 141.155 114.356C135.896 117.963 130.413 121.233 124.739 124.145L121.557 119.319C126.287 115.363 131.102 111.365 135.609 107.325C137.857 105.31 140.074 103.242 141.972 101.174C142.864 100.229 143.693 99.2263 144.454 98.1724C144.57 97.9603 144.761 97.7164 144.814 97.5679L145.217 96.7831L146.278 94.7257C151.75 83.6963 157.095 72.3911 162.695 61.3087L173.204 66.3886Z" fill="#FF8B7B"/>
<path d="M176.407 60.8314C178.645 67.693 164.508 87.8853 164.508 87.8853L149.608 79.539C152.245 73.2369 155.525 67.2237 159.396 61.595C165.24 53.5351 173.968 53.3124 176.407 60.8314Z" fill="#407BFF"/>
<path d="M176.598 61.7011C173.66 60.28 170.235 61.4677 166.555 67.1309C162.875 72.7941 159.661 82.2646 159.28 84.9689L164.508 87.8853C164.508 87.8853 177.574 69.2414 176.598 61.7011Z" fill="#2B6AD8"/>
<path d="M121.843 119.16L114.706 123.285L119.871 130.879C119.871 130.879 125.396 128.09 125.979 122.395L121.843 119.16Z" fill="#FF8B7B"/>
<path d="M110.156 132.618L116 132.035L119.871 130.879L114.706 123.285L110.156 132.618Z" fill="#FF8B7B"/>
<path d="M100.484 200.343H108.152L107.643 209.495H99.9752L100.484 200.343Z" fill="#EA7063"/>
<path d="M210.545 55.1471C210.291 56.1333 210.047 57.1196 209.824 58.1059C209.824 58.1059 209.824 58.1589 209.824 58.1907C208.218 65.1832 207.035 72.2662 206.282 79.4012C204.044 99.8904 205.158 117.251 204.723 121.822H163.702C157.339 78.7118 167.583 55.5713 167.583 55.5713C167.583 55.5713 171.009 54.638 175.357 53.9593C176.672 53.7472 178.072 53.5669 179.482 53.4396C185.286 53.1 191.104 53.1 196.907 53.4396C198.158 53.5033 199.42 53.5987 200.64 53.7153C205.942 54.2562 210.545 55.1471 210.545 55.1471Z" fill="#407BFF"/>
<path d="M209.824 58.0847V58.1483C209.824 58.1483 209.824 58.2014 209.824 58.2332C208.218 65.2257 207.035 72.3087 206.282 79.4436C201.817 73.1547 200.502 66.5795 201.287 62.4753C202.146 57.9362 207.141 57.809 209.824 58.0847Z" fill="#2B6AD8"/>
<path d="M200.64 53.7366L199.484 55.3273C199.261 55.6349 193.937 62.804 182.728 64.819L181.731 64.9993L180.808 64.5645C177.276 62.8994 175.262 60.6617 174.827 57.9256C174.62 56.5869 174.804 55.2171 175.357 53.9805C176.672 53.7684 178.072 53.5881 179.482 53.4608C185.286 53.1212 191.104 53.1212 196.907 53.4608C198.158 53.5244 199.42 53.6199 200.64 53.7366Z" fill="#D1E3FF"/>
<path d="M196.196 33.8412C194.807 39.4408 193.184 49.749 196.907 53.4608C196.907 53.4608 192.241 59.824 182.166 61.6905C174.572 58.1059 179.483 53.4608 179.483 53.4608C185.846 51.9655 185.846 47.331 185.029 42.9723L196.196 33.8412Z" fill="#FF8B7B"/>
<path d="M191.647 37.5636L184.997 42.9616C185.217 43.9804 185.345 45.0168 185.379 46.0584C187.786 45.719 191.201 43.0889 191.583 40.5861C191.785 39.5905 191.806 38.5668 191.647 37.5636Z" fill="#EA7063"/>
<path d="M179.27 16.5865C175.41 18.1879 172.812 28.7613 177.51 31.1899C182.208 33.6185 186.567 13.564 179.27 16.5865Z" fill="#0F264C"/>
<path d="M197.299 25.4525C196.44 33.0458 196.323 37.5106 192.283 41.4133C191.016 42.6982 189.42 43.6095 187.669 44.0476C185.919 44.4856 184.082 44.4334 182.359 43.8968C180.636 43.3601 179.094 42.3597 177.902 41.005C176.71 39.6504 175.914 37.9938 175.601 36.2168C174.328 29.387 175.94 18.1243 183.534 15.1018C185.139 14.3948 186.903 14.1281 188.646 14.3292C190.388 14.5303 192.046 15.1919 193.447 16.2461C194.849 17.3002 195.945 18.7087 196.622 20.3268C197.299 21.9449 197.533 23.7141 197.299 25.4525Z" fill="#FF8B7B"/>
<path d="M191.36 8.78111C195.517 6.16162 201.87 8.7811 200.587 12.3551C198.529 18.1349 203.821 12.5884 203.768 19.4287C203.768 23.8935 198.731 34.4775 195.549 34.2018C192.368 33.926 191.148 28.2947 193.078 22.0376C194.521 17.3289 190.544 19.1848 184.764 19.7575C173.034 20.9029 164.964 5.53592 178.464 6.36312C191.519 7.15851 190.13 0 190.13 0C190.13 0 194.828 7.67817 187.415 7.70999C180.002 7.7418 182.738 14.2004 191.36 8.78111Z" fill="#0F264C"/>
<path d="M200.3 33.7669C199.199 35.3802 197.528 36.5168 195.623 36.9485C193.121 37.4894 192.145 35.2411 193.068 32.9822C193.895 30.946 196.196 28.2098 198.603 28.6764C201.011 29.1431 201.637 31.8156 200.3 33.7669Z" fill="#FF8B7B"/>
<path d="M198.508 14.614C199.54 14.4773 200.524 14.0986 201.381 13.5088C202.238 12.919 202.944 12.1348 203.44 11.2203C203.44 11.2203 203.641 17.2335 198.508 14.614Z" fill="#0F264C"/>
<path d="M163.702 121.843C163.702 121.843 110.676 120.019 103.592 141.113C95.8181 164.2 97.4407 206.982 97.4407 206.982H110.761C110.761 206.982 115.883 176.449 119.393 160.966C123.042 144.888 174.816 152.195 181.391 146.32C186.641 141.632 189.292 133.7 189.992 121.843H163.702Z" fill="#0A1B35"/>
<path d="M111.62 207.3H96.5497L96.1361 202.528L112.595 202.952L111.62 207.3Z" fill="#407BFF"/>
<path d="M170.129 218.085H162.461L156.861 200.332H164.529L170.129 218.085Z" fill="#FF8B7B"/>
<path d="M161.029 213.546H169.641C169.791 213.545 169.938 213.597 170.053 213.695C170.168 213.792 170.243 213.928 170.266 214.077L171.433 220.885C171.456 221.056 171.442 221.229 171.392 221.394C171.342 221.559 171.257 221.711 171.144 221.841C171.03 221.97 170.891 222.074 170.734 222.145C170.577 222.216 170.407 222.253 170.235 222.253C167.233 222.2 165.78 222.02 161.994 222.02C159.661 222.02 151.972 222.264 148.748 222.264C145.524 222.264 145.281 219.082 146.627 218.796C152.598 217.502 157.795 215.72 159.767 214.024C160.119 213.721 160.566 213.552 161.029 213.546Z" fill="#14365B"/>
<path d="M164.529 200.343H156.861L159.757 209.495H167.424L164.529 200.343Z" fill="#EA7063"/>
<path d="M158.484 214.904C157.958 214.945 157.433 214.802 157 214.501C156.866 214.38 156.766 214.226 156.709 214.056C156.651 213.885 156.638 213.702 156.671 213.525C156.678 213.415 156.715 213.31 156.776 213.218C156.837 213.127 156.922 213.054 157.021 213.006C157.912 212.581 160.298 214.066 160.563 214.268C160.594 214.29 160.618 214.321 160.633 214.357C160.648 214.392 160.653 214.431 160.648 214.469C160.641 214.507 160.623 214.542 160.597 214.57C160.57 214.599 160.537 214.619 160.499 214.628C159.84 214.794 159.164 214.886 158.484 214.904ZM157.424 213.313C157.347 213.3 157.268 213.3 157.19 213.313C157.151 213.333 157.119 213.363 157.096 213.401C157.074 213.438 157.062 213.481 157.063 213.525C157.039 213.641 157.045 213.761 157.08 213.875C157.116 213.988 157.179 214.09 157.265 214.172C158.106 214.555 159.061 214.604 159.937 214.31C159.175 213.812 158.32 213.473 157.424 213.313Z" fill="#0053CC"/>
<path d="M160.414 214.628C160.383 214.638 160.35 214.638 160.319 214.628C159.566 214.204 158.113 212.507 158.283 211.669C158.312 211.527 158.388 211.399 158.5 211.306C158.612 211.214 158.752 211.162 158.898 211.16C159.038 211.142 159.181 211.154 159.317 211.196C159.452 211.239 159.577 211.309 159.682 211.404C160.531 212.146 160.605 214.363 160.605 214.458C160.605 214.492 160.596 214.526 160.579 214.556C160.563 214.585 160.539 214.61 160.51 214.628C160.479 214.638 160.445 214.638 160.414 214.628ZM159.025 211.521H158.94C158.707 211.521 158.675 211.659 158.664 211.712C158.569 212.21 159.46 213.451 160.192 214.034C160.183 213.187 159.917 212.362 159.428 211.669C159.316 211.572 159.173 211.519 159.025 211.521Z" fill="#0053CC"/>
<path d="M178.242 121.843C178.242 121.843 126.202 124.516 129.85 146.458C133.838 170.489 156.278 206.982 156.278 206.982H169.673C169.673 206.982 160.531 171.9 156.3 156.607C153.383 146.002 189.526 152.195 196.101 146.32C201.351 141.632 204.002 133.7 204.702 121.843H178.242Z" fill="#14365B"/>
<path d="M170.468 207.3H155.398L152.471 202.528H170.373L170.468 207.3Z" fill="#407BFF"/>
<path d="M185.676 27.5735C185.676 28.1886 185.283 28.6871 184.88 28.6871C184.477 28.6871 184.18 28.1886 184.212 27.5735C184.244 26.9584 184.594 26.4494 184.997 26.4494C185.4 26.4494 185.708 26.9054 185.676 27.5735Z" fill="#0F264C"/>
<path d="M178.687 27.5735C178.687 28.1886 178.295 28.6871 177.892 28.6871C177.489 28.6871 177.192 28.1886 177.224 27.5735C177.255 26.9584 177.605 26.4494 178.008 26.4494C178.411 26.4494 178.719 26.9054 178.687 27.5735Z" fill="#0F264C"/>
<path d="M180.893 27.828C180.052 29.73 178.965 31.5128 177.658 33.1306C178.076 33.4322 178.554 33.638 179.06 33.7333C179.566 33.8286 180.087 33.8111 180.585 33.6821L180.893 27.828Z" fill="#FF5652"/>
<path d="M182.314 35.3789C182.266 35.3789 182.221 35.36 182.187 35.3261C182.153 35.2923 182.134 35.2465 182.134 35.1987C182.132 35.1746 182.136 35.1504 182.144 35.1279C182.153 35.1053 182.166 35.0848 182.183 35.0677C182.2 35.0507 182.221 35.0374 182.243 35.0289C182.266 35.0204 182.29 35.0168 182.314 35.0184C183.097 35.0259 183.871 34.8573 184.58 34.525C185.288 34.1927 185.913 33.7053 186.408 33.0988C186.436 33.0595 186.477 33.0321 186.525 33.0223C186.572 33.0125 186.621 33.0209 186.662 33.0458C186.696 33.0796 186.715 33.1254 186.715 33.1731C186.715 33.2208 186.696 33.2665 186.662 33.3003C186.145 33.9569 185.484 34.4859 184.73 34.8463C183.977 35.2067 183.15 35.3889 182.314 35.3789Z" fill="#0F264C"/>
<path d="M187.914 25.2616C187.856 25.2616 187.799 25.2482 187.748 25.2224C187.696 25.1966 187.651 25.1592 187.617 25.1131C187.367 24.7459 187.032 24.4444 186.64 24.2339C186.249 24.0235 185.813 23.9104 185.368 23.9041C185.32 23.9117 185.272 23.9089 185.225 23.896C185.178 23.883 185.135 23.8602 185.097 23.829C185.06 23.7979 185.03 23.7591 185.009 23.7154C184.988 23.6716 184.977 23.6238 184.976 23.5753C184.97 23.4786 185.002 23.3833 185.066 23.31C185.129 23.2367 185.219 23.1911 185.315 23.183C185.885 23.1743 186.448 23.3074 186.953 23.5703C187.459 23.8332 187.891 24.2175 188.211 24.6889C188.265 24.7682 188.287 24.8656 188.271 24.9606C188.255 25.0556 188.203 25.1407 188.126 25.1979C188.063 25.2396 187.989 25.2618 187.914 25.2616Z" fill="#0F264C"/>
<path d="M175.771 25.1238C175.715 25.1346 175.657 25.1346 175.601 25.1238C175.516 25.0767 175.453 24.9981 175.425 24.9049C175.397 24.8117 175.407 24.7113 175.453 24.6253C175.714 24.1021 176.093 23.6468 176.561 23.2952C177.028 22.9437 177.571 22.7056 178.146 22.5997C178.24 22.5876 178.335 22.6131 178.411 22.6707C178.486 22.7283 178.536 22.8133 178.549 22.9073C178.562 23.0026 178.536 23.099 178.479 23.1762C178.422 23.2533 178.337 23.3052 178.242 23.3209C177.785 23.4149 177.356 23.6131 176.988 23.9001C176.62 24.187 176.323 24.555 176.121 24.9753C176.081 25.0293 176.028 25.0716 175.966 25.0977C175.905 25.1239 175.837 25.1329 175.771 25.1238Z" fill="#0F264C"/>
<path d="M208.435 58.0847C209.867 58.371 211.076 58.668 212.359 59.0179C213.642 59.3679 214.872 59.7285 216.124 60.0785C218.612 60.8491 221.087 61.7294 223.547 62.7192C225.976 63.6949 228.373 64.7872 230.738 66.0174C231.925 66.6113 233.092 67.2688 234.248 67.9369C234.821 68.2763 235.393 68.6475 235.966 68.9975L236.825 69.5383C236.878 69.5383 237.334 69.8671 237.631 70.0898C237.957 70.3482 238.269 70.6243 238.564 70.917C239.609 72.0326 240.341 73.4046 240.685 74.8939C240.943 75.9839 241.029 77.1075 240.94 78.224C240.801 79.8826 240.445 81.5157 239.879 83.0812C238.938 85.6666 237.744 88.1531 236.316 90.5048C233.667 94.9617 230.599 99.1556 227.153 103.03L222.444 99.7207C224.629 95.4786 226.782 90.982 228.542 86.6551C229.403 84.5945 230.091 82.4662 230.6 80.292C230.8 79.4842 230.889 78.6529 230.865 77.821C230.865 77.5453 230.769 77.3862 230.759 77.4604C230.803 77.7476 230.941 78.0122 231.151 78.2134C231.215 78.2945 231.29 78.366 231.374 78.4255C231.374 78.4785 231.618 78.5952 231.374 78.4785L230.61 78.0967C230.101 77.8422 229.55 77.5665 229.083 77.3332C228.023 76.8559 226.962 76.3575 225.902 75.912C223.781 74.9894 221.585 74.1622 219.369 73.3774C217.152 72.5926 214.915 71.8715 212.645 71.1927C211.51 70.8534 210.376 70.514 209.241 70.2065L205.932 69.3368L208.435 58.0847Z" fill="#FF8B7B"/>
<path d="M203.026 55.8576C208.626 51.2125 229.041 62.1677 229.041 62.1677L217.014 77.2377C217.014 77.2377 214.893 76.7605 206.409 72.9426C197.511 68.9338 197.013 60.8315 203.026 55.8576Z" fill="#407BFF"/>
<path d="M96.4648 214.904C95.9415 214.945 95.4203 214.802 94.9907 214.501C94.8575 214.38 94.7574 214.226 94.6999 214.056C94.6424 213.885 94.6293 213.702 94.6619 213.525C94.6683 213.415 94.7042 213.309 94.7658 213.217C94.8273 213.126 94.9123 213.053 95.0119 213.006C95.8921 212.581 98.2783 214.066 98.5434 214.268C98.5769 214.284 98.6051 214.31 98.6248 214.342C98.6445 214.374 98.6549 214.41 98.6549 214.448C98.6549 214.485 98.6445 214.522 98.6248 214.554C98.6051 214.586 98.5769 214.611 98.5434 214.628C97.863 214.798 97.1658 214.89 96.4648 214.904ZM95.4043 213.313C95.3306 213.3 95.2552 213.3 95.1815 213.313C95.1421 213.333 95.1086 213.364 95.0844 213.401C95.0602 213.438 95.0462 213.481 95.0437 213.525C95.0197 213.641 95.0257 213.761 95.0609 213.875C95.0962 213.988 95.1596 214.09 95.2452 214.172C96.09 214.556 97.0486 214.605 97.9283 214.31C97.1625 213.811 96.3041 213.472 95.4043 213.313Z" fill="#0053CC"/>
<path d="M98.4376 214.628C98.4066 214.638 98.3733 214.638 98.3422 214.628C97.5892 214.204 96.1469 212.507 96.3166 211.669C96.3415 211.527 96.4157 211.398 96.5263 211.305C96.6368 211.212 96.7766 211.161 96.9211 211.16C97.0618 211.141 97.2051 211.152 97.3408 211.194C97.4764 211.237 97.6011 211.308 97.7059 211.404C98.5649 212.146 98.6285 214.363 98.6392 214.458C98.6389 214.492 98.63 214.526 98.6133 214.556C98.5966 214.585 98.5726 214.61 98.5437 214.628C98.5092 214.639 98.4721 214.639 98.4376 214.628ZM97.0484 211.521H96.9741C96.7302 211.521 96.709 211.659 96.6984 211.712C96.6029 212.21 97.4832 213.451 98.2255 214.034C98.2097 213.186 97.94 212.362 97.4514 211.669C97.3408 211.57 97.1967 211.517 97.0484 211.521Z" fill="#0053CC"/>
<path d="M221.649 100.007L217.004 106.179L226.548 106.837C226.548 106.837 229.73 100.612 226.368 99.2117L221.649 100.007Z" fill="#FF8B7B"/>
<path d="M217.545 114.812L225.477 114.971L226.58 106.837L217.004 106.179L217.545 114.812Z" fill="#FF8B7B"/>
<path d="M178.061 88.7231C177.555 88.7191 177.054 88.6127 176.589 88.4104C176.124 88.2081 175.705 87.9141 175.357 87.546C173.841 86.0294 173.109 83.3039 173.406 80.1223C173.883 75.1379 176.736 71.0018 179.917 70.7155C180.477 70.6666 181.041 70.7453 181.567 70.9455C182.092 71.1457 182.565 71.4623 182.95 71.8715C184.467 73.3986 185.199 76.1135 184.902 79.2951C184.425 84.2902 181.572 88.4262 178.401 88.7125L178.061 88.7231ZM180.257 71.7548H180.013C177.414 71.9881 174.88 75.8696 174.466 80.239C174.201 82.9963 174.837 85.5416 176.11 86.793C176.386 87.0932 176.728 87.3259 177.109 87.473C177.49 87.6201 177.899 87.6777 178.305 87.6414C180.893 87.4081 183.438 83.5372 183.852 79.1573C184.106 76.3999 183.481 73.8546 182.197 72.6032C181.947 72.3409 181.646 72.1322 181.312 71.99C180.979 71.8478 180.619 71.775 180.257 71.776V71.7548Z" fill="#D1E3FF"/>
<path d="M91.8516 126.912L90.3456 148.696H79.3905L79.0935 144.379L78.1815 131.229L77.8845 126.912H91.8516Z" fill="#0053CC"/>
<path d="M93.0501 126.202H76.6969V127.612H93.0501V126.202Z" fill="#D1E3FF"/>
<path d="M92.0426 124.781H77.6937V126.191H92.0426V124.781Z" fill="#D1E3FF"/>
<path d="M84.2479 131.229V144.379H78.9559L78.0544 131.229H84.2479Z" fill="#D1E3FF"/>
</svg>
