<svg width="381" height="250" viewBox="0 0 381 250" fill="none" xmlns="http://www.w3.org/2000/svg">
<path fill-rule="evenodd" clip-rule="evenodd" d="M333.088 233.047C333.088 233.047 364.879 195.135 327.788 162.334C327.788 162.334 361.094 125.218 339.904 83.1114C318.714 41.0044 277.825 44.5401 245.267 53.0969C212.709 61.6538 170.329 57.3873 137.777 23.8432C105.226 -9.70096 67.3794 -2.56429 52.9991 13.1471C38.6188 28.8584 34.8336 60.9705 50.7292 93.0825C66.6247 125.195 57.539 145.897 43.9193 161.603C30.2996 177.308 28.7784 221.025 61.3242 233.059L333.088 233.047Z" fill="#F0EEF6"/>
<path fill-rule="evenodd" clip-rule="evenodd" d="M50.5748 116.269C55.8813 142.415 35.422 155.655 20.5842 156.053C11.2429 156.302 6.32272 151.133 5.7285 144.947C4.62918 133.127 14.428 128.594 23.686 126.032C28.4399 124.713 33.158 122.871 35.0239 117.38C39.1478 105.264 47.6156 101.717 50.5748 116.269Z" fill="#F0EEF6"/>
<path fill-rule="evenodd" clip-rule="evenodd" d="M23.4958 106.298C23.4958 106.236 23.5082 106.174 23.5321 106.117C23.5561 106.06 23.5912 106.008 23.6354 105.964C23.6797 105.92 23.7321 105.886 23.7898 105.863C23.8474 105.839 23.9091 105.828 23.9712 105.829C24.0957 105.829 24.2151 105.878 24.3032 105.966C24.3912 106.054 24.4407 106.174 24.4407 106.298V108.431C24.4407 108.556 24.3912 108.675 24.3032 108.763C24.2151 108.851 24.0957 108.901 23.9712 108.901C23.9091 108.902 23.8474 108.89 23.7898 108.867C23.7321 108.844 23.6797 108.809 23.6354 108.765C23.5912 108.722 23.5561 108.67 23.5321 108.612C23.5082 108.555 23.4958 108.494 23.4958 108.431V106.298ZM20.2692 108.027C20.2254 107.984 20.1906 107.932 20.1668 107.875C20.1431 107.818 20.1309 107.756 20.1309 107.695C20.1309 107.633 20.1431 107.571 20.1668 107.514C20.1906 107.457 20.2254 107.405 20.2692 107.362C20.3583 107.273 20.4791 107.223 20.6049 107.223C20.7308 107.223 20.8515 107.273 20.9407 107.362L22.4441 108.865C22.533 108.954 22.5829 109.075 22.5829 109.201C22.5829 109.327 22.533 109.448 22.4441 109.537C22.4004 109.58 22.3486 109.615 22.2915 109.639C22.2344 109.663 22.1731 109.675 22.1113 109.675C22.0494 109.675 21.9882 109.663 21.9311 109.639C21.874 109.615 21.8221 109.58 21.7785 109.537L20.2692 108.027ZM19.2115 111.533C19.0854 111.533 18.9645 111.483 18.8753 111.394C18.7862 111.305 18.7361 111.184 18.7361 111.058C18.7361 110.996 18.7484 110.934 18.7724 110.877C18.7963 110.819 18.8315 110.767 18.8757 110.724C18.9199 110.68 18.9724 110.646 19.03 110.622C19.0876 110.599 19.1493 110.588 19.2115 110.588H21.3388C21.4009 110.588 21.4626 110.599 21.5203 110.622C21.5779 110.646 21.6304 110.68 21.6746 110.724C21.7188 110.767 21.7539 110.819 21.7779 110.877C21.8019 110.934 21.8142 110.996 21.8142 111.058C21.8142 111.184 21.7641 111.305 21.6749 111.394C21.5858 111.483 21.4649 111.533 21.3388 111.533H19.2115ZM20.9407 114.76C20.8502 114.842 20.7318 114.886 20.6098 114.883C20.4878 114.88 20.3716 114.83 20.2853 114.744C20.199 114.657 20.1492 114.541 20.1462 114.419C20.1432 114.297 20.1873 114.179 20.2692 114.088L21.7785 112.585C21.8668 112.497 21.9865 112.447 22.1113 112.447C22.2361 112.447 22.3558 112.497 22.4441 112.585C22.5323 112.673 22.5819 112.793 22.5819 112.918C22.5819 113.043 22.5323 113.162 22.4441 113.251L20.9407 114.76ZM24.4407 115.818C24.4414 115.88 24.4299 115.941 24.4067 115.999C24.3834 116.057 24.349 116.109 24.3053 116.153C24.2616 116.198 24.2096 116.233 24.1523 116.257C24.0949 116.281 24.0334 116.293 23.9712 116.293C23.8451 116.293 23.7242 116.243 23.6351 116.154C23.5459 116.065 23.4958 115.944 23.4958 115.818V113.708C23.4958 113.582 23.5459 113.461 23.6351 113.372C23.7242 113.283 23.8451 113.233 23.9712 113.233C24.0334 113.233 24.0949 113.245 24.1523 113.269C24.2096 113.293 24.2616 113.328 24.3053 113.372C24.349 113.417 24.3834 113.469 24.4067 113.527C24.4299 113.584 24.4414 113.646 24.4407 113.708V115.835V115.818ZM27.6673 114.088C27.7562 114.178 27.8061 114.298 27.8061 114.424C27.8061 114.55 27.7562 114.671 27.6673 114.76C27.6237 114.804 27.5718 114.839 27.5147 114.862C27.4576 114.886 27.3964 114.898 27.3345 114.898C27.2727 114.898 27.2115 114.886 27.1544 114.862C27.0973 114.839 27.0454 114.804 27.0018 114.76L25.4924 113.251C25.4486 113.207 25.4138 113.155 25.3901 113.098C25.3663 113.041 25.3541 112.98 25.3541 112.918C25.3541 112.856 25.3663 112.795 25.3901 112.738C25.4138 112.68 25.4486 112.629 25.4924 112.585C25.5816 112.496 25.7023 112.446 25.8282 112.446C25.9541 112.446 26.0748 112.496 26.1639 112.585L27.6673 114.088ZM28.725 110.588C28.7872 110.588 28.8489 110.599 28.9065 110.622C28.9642 110.646 29.0166 110.68 29.0608 110.724C29.1051 110.767 29.1402 110.819 29.1641 110.877C29.1881 110.934 29.2004 110.996 29.2004 111.058C29.2004 111.12 29.1881 111.182 29.1642 111.24C29.1403 111.297 29.1053 111.35 29.0612 111.394C29.017 111.438 28.9646 111.473 28.907 111.497C28.8493 111.521 28.7875 111.533 28.725 111.533H26.6037C26.5415 111.533 26.48 111.521 26.4226 111.497C26.3653 111.473 26.3133 111.438 26.2696 111.394C26.2259 111.349 26.1915 111.297 26.1682 111.239C26.145 111.182 26.1334 111.12 26.1342 111.058C26.1342 110.933 26.1837 110.814 26.2717 110.726C26.3597 110.638 26.4791 110.588 26.6037 110.588H28.725ZM27.0018 107.362C27.09 107.274 27.2097 107.224 27.3345 107.224C27.4594 107.224 27.5791 107.274 27.6673 107.362C27.7556 107.45 27.8052 107.57 27.8052 107.695C27.8052 107.819 27.7556 107.939 27.6673 108.027L26.1699 109.549C26.0794 109.63 25.961 109.674 25.839 109.671C25.717 109.668 25.6008 109.619 25.5145 109.532C25.4282 109.446 25.3784 109.33 25.3754 109.208C25.3724 109.086 25.4165 108.967 25.4984 108.877L27.0018 107.362Z" fill="#C8BFDE"/>
<path fill-rule="evenodd" clip-rule="evenodd" d="M316.04 250C316.04 250 350.588 234.164 347.759 198.118C347.759 198.118 347.658 197.191 348.413 197.149C349.168 197.108 361.189 226.207 335.738 247.766L316.04 250Z" fill="#F0EEF6"/>
<path d="M82.1401 14.9714H63.8735V20.5096H82.1401V14.9714Z" fill="#DCD7EB"/>
<path d="M101.274 14.9714H83.0076V20.5096H101.274V14.9714Z" fill="#DCD7EB"/>
<path d="M74.1476 21.6148H55.8811V27.153H74.1476V21.6148Z" fill="#DCD7EB"/>
<path d="M93.2878 21.6148H75.0212V27.153H93.2878V21.6148Z" fill="#DCD7EB"/>
<path d="M82.1401 28.2583H63.8735V33.7905H82.1401V28.2583Z" fill="#DCD7EB"/>
<path d="M101.274 28.2583H83.0076V33.7905H101.274V28.2583Z" fill="#DCD7EB"/>
<path d="M74.1476 34.9017H55.8811V40.4399H74.1476V34.9017Z" fill="#DCD7EB"/>
<path d="M93.2878 34.9017H75.0212V40.4399H93.2878V34.9017Z" fill="#DCD7EB"/>
<path d="M295.325 91.4781H277.058V97.0103H295.325V91.4781Z" fill="#DCD7EB"/>
<path d="M314.459 91.4781H296.192V97.0103H314.459V91.4781Z" fill="#DCD7EB"/>
<path d="M287.332 98.1215H269.066V103.66H287.332V98.1215Z" fill="#DCD7EB"/>
<path d="M306.473 98.1215H288.206V103.66H306.473V98.1215Z" fill="#DCD7EB"/>
<path d="M314.459 104.759H296.192V110.291H314.459V104.759Z" fill="#DCD7EB"/>
<path d="M333.593 104.759H315.326V110.291H333.593V104.759Z" fill="#DCD7EB"/>
<path d="M325.607 111.402H307.34V116.935H325.607V111.402Z" fill="#DCD7EB"/>
<path d="M150.102 53.9586H131.835V59.4908H150.102V53.9586Z" fill="#DCD7EB"/>
<path d="M169.236 53.9586H150.969V59.4908H169.236V53.9586Z" fill="#DCD7EB"/>
<path d="M142.115 60.602H123.849V66.1402H142.115V60.602Z" fill="#DCD7EB"/>
<path d="M161.249 60.602H142.983V66.1402H161.249V60.602Z" fill="#DCD7EB"/>
<path d="M150.102 67.2455H131.835V72.7837H150.102V67.2455Z" fill="#DCD7EB"/>
<path d="M161.249 73.883H142.983V79.4152H161.249V73.883Z" fill="#DCD7EB"/>
<path d="M296.08 129.824H277.813V135.362H296.08V129.824Z" fill="#DCD7EB"/>
<path d="M249.819 136.467H231.552V142.005H249.819V136.467Z" fill="#DCD7EB"/>
<path d="M268.959 136.467H250.692V142.005H268.959V136.467Z" fill="#DCD7EB"/>
<path d="M288.093 136.467H269.827V142.005H288.093V136.467Z" fill="#DCD7EB"/>
<path d="M257.811 143.11H239.545V148.649H257.811V143.11Z" fill="#DCD7EB"/>
<path d="M276.946 143.11H258.679V148.649H276.946V143.11Z" fill="#DCD7EB"/>
<path d="M249.819 149.754H231.552V155.292H249.819V149.754Z" fill="#DCD7EB"/>
<path d="M107.43 111.361H104.863C103.839 111.361 103.009 112.191 103.009 113.215V230.979C103.009 232.003 103.839 232.833 104.863 232.833H107.43C108.454 232.833 109.284 232.003 109.284 230.979V113.215C109.284 112.191 108.454 111.361 107.43 111.361Z" fill="#717698"/>
<path fill-rule="evenodd" clip-rule="evenodd" d="M133.119 116.477H83.7681C83.5811 116.473 83.3953 116.508 83.2225 116.58C83.0496 116.652 82.8935 116.758 82.7639 116.893L68.1875 131.464C67.9222 131.732 67.7734 132.094 67.7734 132.471C67.7734 132.848 67.9222 133.21 68.1875 133.478L82.7639 148.048C82.8944 148.182 83.0506 148.288 83.2233 148.36C83.3959 148.431 83.5813 148.467 83.7681 148.464H133.119C133.495 148.464 133.857 148.315 134.123 148.048C134.389 147.782 134.539 147.421 134.539 147.044V117.897C134.539 117.521 134.389 117.159 134.123 116.893C133.857 116.627 133.495 116.477 133.119 116.477Z" fill="#717698"/>
<path fill-rule="evenodd" clip-rule="evenodd" d="M71.4082 131.464L85.9846 116.893C86.1142 116.758 86.2703 116.652 86.4432 116.58C86.616 116.508 86.8018 116.473 86.9888 116.477H83.7681C83.5811 116.473 83.3953 116.508 83.2225 116.58C83.0496 116.652 82.8935 116.758 82.7639 116.893L68.1875 131.464C67.9222 131.732 67.7734 132.094 67.7734 132.471C67.7734 132.848 67.9222 133.21 68.1875 133.478L82.7639 148.048C82.8944 148.182 83.0506 148.288 83.2233 148.36C83.3959 148.431 83.5813 148.467 83.7681 148.464H86.9829C86.797 148.466 86.6127 148.43 86.4411 148.359C86.2694 148.287 86.1142 148.182 85.9846 148.048L71.4082 133.478C71.1429 133.21 70.9942 132.848 70.9942 132.471C70.9942 132.094 71.1429 131.732 71.4082 131.464Z" fill="#4E4F77"/>
<path fill-rule="evenodd" clip-rule="evenodd" d="M103.009 148.464V150.206H105.939C106.335 150.207 106.715 150.365 106.996 150.646C107.276 150.926 107.435 151.306 107.436 151.703V230.468H109.29V148.464H103.009Z" fill="#4E4F77"/>
<path fill-rule="evenodd" clip-rule="evenodd" d="M102.89 126.413H115.452C115.604 126.422 115.746 126.488 115.85 126.599C115.953 126.709 116.011 126.855 116.011 127.007V135.778C116.011 135.926 115.952 136.068 115.847 136.173C115.742 136.277 115.6 136.336 115.452 136.336H102.89V140.787C102.889 140.895 102.857 141.001 102.797 141.091C102.738 141.181 102.653 141.253 102.554 141.297C102.456 141.34 102.346 141.355 102.239 141.338C102.132 141.322 102.032 141.275 101.951 141.203L91.4989 131.808C91.4405 131.756 91.3938 131.692 91.3621 131.62C91.3303 131.548 91.3142 131.471 91.3147 131.392C91.3138 131.314 91.3297 131.236 91.3615 131.164C91.3933 131.093 91.4402 131.028 91.4989 130.976L101.934 121.546C102.013 121.475 102.112 121.429 102.218 121.414C102.323 121.398 102.431 121.413 102.528 121.457C102.628 121.499 102.713 121.571 102.772 121.662C102.831 121.753 102.862 121.859 102.861 121.968L102.89 126.413Z" fill="white"/>
<path fill-rule="evenodd" clip-rule="evenodd" d="M283.173 124.707C295.426 112.228 304.565 128.077 303.27 143.984C302.081 159.071 289.056 210.823 291.468 232.595H286.501C274.325 204.672 267.497 140.68 283.173 124.707Z" fill="#0466C8"/>
<path fill-rule="evenodd" clip-rule="evenodd" d="M288.331 232.595C276.482 188.581 291.492 127.762 291.54 127.554C291.584 127.372 291.698 127.216 291.857 127.119C292.017 127.022 292.208 126.993 292.389 127.037C292.571 127.081 292.727 127.195 292.824 127.354C292.921 127.514 292.951 127.705 292.906 127.886C292.853 128.094 277.831 188.991 289.775 232.595H288.331Z" fill="#0466C8"/>
<path fill-rule="evenodd" clip-rule="evenodd" d="M313.413 152.202C326.326 145.363 329.582 160.29 324.549 172.638C320.389 182.87 301.968 213.146 294.98 232.595H288.444C287.855 205.712 298.171 160.278 313.413 152.202Z" fill="#0466C8" fill-opacity="0.6"/>
<path fill-rule="evenodd" clip-rule="evenodd" d="M290.809 232.595C295.081 196.24 319.26 156.724 319.331 156.582C319.414 156.451 319.543 156.358 319.693 156.321C319.843 156.285 320.001 156.308 320.134 156.385C320.267 156.467 320.362 156.597 320.4 156.748C320.438 156.899 320.415 157.059 320.336 157.194C320.247 157.336 296.228 196.591 291.961 232.595H290.809Z" fill="#0466C8"/>
<path fill-rule="evenodd" clip-rule="evenodd" d="M258.839 169.459C246.325 163.986 244.34 178.128 249.896 189.282C253.664 196.829 267.218 216.153 276.351 232.595H286.768C283.203 207.727 271.776 175.104 258.839 169.459Z" fill="#74B9FF"/>
<path fill-rule="evenodd" clip-rule="evenodd" d="M283.048 232.595C274.135 202.462 253.699 174.07 253.616 173.957C253.578 173.89 253.526 173.831 253.464 173.785C253.402 173.739 253.331 173.707 253.255 173.69C253.18 173.673 253.102 173.673 253.026 173.688C252.951 173.703 252.879 173.734 252.816 173.779C252.753 173.823 252.7 173.881 252.66 173.947C252.621 174.013 252.596 174.087 252.587 174.164C252.578 174.241 252.585 174.319 252.607 174.392C252.63 174.466 252.668 174.534 252.719 174.593C252.802 174.706 273.053 202.807 281.913 232.595H283.048Z" fill="#0466C8"/>
<path fill-rule="evenodd" clip-rule="evenodd" d="M76.7682 156.677C87.4643 148.191 94.7435 159.547 93.2223 170.706C91.7783 181.29 79.3293 217.383 80.7436 232.75L76.5364 232.637C67.0347 212.712 63.0534 167.545 76.7682 156.677Z" fill="#0466C8"/>
<path fill-rule="evenodd" clip-rule="evenodd" d="M78.0932 232.678C69.3046 201.452 83.7027 159.024 83.7502 158.875C83.8115 158.739 83.9196 158.63 84.0548 158.566C84.19 158.503 84.3433 158.49 84.4871 158.531C84.5541 158.54 84.6184 158.564 84.6759 158.6C84.7334 158.636 84.7829 158.683 84.8214 158.738C84.8599 158.794 84.8865 158.857 84.8995 158.924C84.9125 158.99 84.9117 159.059 84.8971 159.125C84.8496 159.267 70.4395 201.749 79.3114 232.69L78.0932 232.678Z" fill="#0466C8"/>
<path fill-rule="evenodd" clip-rule="evenodd" d="M101.559 176.696C112.671 172.186 115.007 182.763 110.401 191.332C106.586 198.433 90.1501 219.29 83.7146 232.809L78.1646 232.655C78.4438 213.764 88.4447 182.044 101.559 176.696Z" fill="#0466C8" fill-opacity="0.6"/>
<path fill-rule="evenodd" clip-rule="evenodd" d="M80.1909 232.732C84.8259 207.269 106.378 180.042 106.456 179.941C106.543 179.85 106.657 179.79 106.781 179.769C106.905 179.748 107.032 179.766 107.145 179.822C107.201 179.844 107.25 179.879 107.289 179.925C107.328 179.97 107.356 180.024 107.37 180.082C107.384 180.14 107.384 180.201 107.369 180.259C107.355 180.317 107.327 180.371 107.288 180.416C107.21 180.517 85.7945 207.566 81.1773 232.785L80.1909 232.732Z" fill="#0466C8"/>
<path fill-rule="evenodd" clip-rule="evenodd" d="M54.9243 187.582C44.4956 183.423 42.4456 193.346 46.8072 201.321C49.7783 206.716 60.7002 220.621 67.9617 232.399L76.7741 232.643C74.4566 215.065 65.6858 191.861 54.9243 187.582Z" fill="#74B9FF"/>
<path fill-rule="evenodd" clip-rule="evenodd" d="M73.6248 232.553C66.9576 211.161 50.45 190.708 50.3846 190.625C50.3045 190.537 50.1969 190.478 50.0794 190.459C49.9618 190.439 49.8411 190.46 49.7369 190.518C49.6883 190.54 49.6454 190.572 49.6116 190.613C49.5777 190.654 49.5538 190.703 49.5417 190.754C49.5296 190.806 49.5297 190.86 49.5419 190.912C49.5541 190.964 49.5782 191.012 49.6121 191.053C49.6775 191.136 66.0068 211.369 72.6681 232.53L73.6248 232.553Z" fill="#0466C8"/>
<path fill-rule="evenodd" clip-rule="evenodd" d="M13.5661 230.468H368.147C369.268 230.471 370.343 230.918 371.135 231.71C371.928 232.503 372.375 233.577 372.378 234.699C372.373 235.819 371.926 236.892 371.133 237.683C370.341 238.475 369.267 238.92 368.147 238.924H353.886C353.255 238.924 352.651 239.174 352.205 239.62C351.759 240.066 351.509 240.67 351.509 241.3C351.517 241.926 351.771 242.523 352.216 242.962C352.66 243.401 353.261 243.648 353.886 243.648H359.103C359.886 243.648 360.637 243.957 361.194 244.507C361.75 245.058 362.066 245.806 362.074 246.589C362.065 247.371 361.748 248.118 361.192 248.667C360.635 249.217 359.885 249.525 359.103 249.525H23.0797C22.304 249.515 21.5627 249.203 21.0142 248.655C20.4657 248.106 20.1534 247.365 20.1442 246.589C20.1519 245.812 20.4635 245.07 21.0122 244.52C21.5608 243.97 22.303 243.657 23.0797 243.648H27.1917C27.817 243.648 28.4171 243.401 28.862 242.962C29.3069 242.523 29.5608 241.926 29.5686 241.3C29.5686 240.67 29.3182 240.066 28.8725 239.62C28.4267 239.174 27.8221 238.924 27.1917 238.924H13.5661C12.4455 238.922 11.3712 238.477 10.5782 237.685C9.7853 236.893 9.33835 235.819 9.33521 234.699C9.33834 233.577 9.7851 232.503 10.5779 231.71C11.3706 230.918 12.445 230.471 13.5661 230.468ZM15.7647 249.483C16.5124 249.48 17.2285 249.181 17.7571 248.653C18.2858 248.124 18.5842 247.408 18.5873 246.66V246.429C18.5795 245.685 18.2799 244.974 17.753 244.45C17.2262 243.925 16.5142 243.629 15.7707 243.624C15.0236 243.627 14.3081 243.926 13.7804 244.454C13.2527 244.983 12.9556 245.699 12.954 246.446V246.678C12.9556 247.425 13.2527 248.141 13.7804 248.67C14.3081 249.199 15.0236 249.498 15.7707 249.501L15.7647 249.483Z" fill="#1F1F40"/>
<path d="M352.513 159.743H349.833C349.341 159.743 348.942 160.142 348.942 160.634V163.314C348.942 163.806 349.341 164.205 349.833 164.205H352.513C353.005 164.205 353.405 163.806 353.405 163.314V160.634C353.405 160.142 353.005 159.743 352.513 159.743Z" fill="#DCD7EB"/>
<path d="M361.665 159.743H358.985C358.492 159.743 358.093 160.142 358.093 160.634V163.314C358.093 163.806 358.492 164.205 358.985 164.205H361.665C362.157 164.205 362.556 163.806 362.556 163.314V160.634C362.556 160.142 362.157 159.743 361.665 159.743Z" fill="#DCD7EB"/>
<path d="M370.815 159.743H368.135C367.643 159.743 367.244 160.142 367.244 160.634V163.314C367.244 163.806 367.643 164.205 368.135 164.205H370.815C371.308 164.205 371.707 163.806 371.707 163.314V160.634C371.707 160.142 371.308 159.743 370.815 159.743Z" fill="#DCD7EB"/>
<path d="M379.96 159.743H377.281C376.788 159.743 376.389 160.142 376.389 160.634V163.314C376.389 163.806 376.788 164.205 377.281 164.205H379.96C380.453 164.205 380.852 163.806 380.852 163.314V160.634C380.852 160.142 380.453 159.743 379.96 159.743Z" fill="#DCD7EB"/>
<path fill-rule="evenodd" clip-rule="evenodd" d="M367.244 128.605C367.244 128.479 367.294 128.358 367.383 128.269C367.473 128.18 367.593 128.13 367.72 128.13C367.782 128.13 367.843 128.142 367.901 128.166C367.958 128.19 368.01 128.225 368.054 128.27C368.097 128.314 368.132 128.366 368.155 128.424C368.178 128.482 368.19 128.543 368.189 128.605V130.733C368.19 130.795 368.178 130.857 368.155 130.914C368.132 130.972 368.097 131.024 368.054 131.068C368.01 131.113 367.958 131.148 367.901 131.172C367.843 131.196 367.782 131.208 367.72 131.208C367.593 131.208 367.473 131.158 367.383 131.069C367.294 130.98 367.244 130.859 367.244 130.733V128.605ZM364.017 130.329C363.974 130.285 363.939 130.233 363.915 130.176C363.891 130.119 363.879 130.058 363.879 129.996C363.879 129.934 363.891 129.873 363.915 129.816C363.939 129.759 363.974 129.707 364.017 129.663C364.107 129.574 364.227 129.524 364.353 129.524C364.479 129.524 364.6 129.574 364.689 129.663L366.192 131.166C366.281 131.256 366.331 131.376 366.331 131.502C366.331 131.628 366.281 131.749 366.192 131.838C366.149 131.882 366.097 131.917 366.04 131.94C365.983 131.964 365.921 131.976 365.86 131.976C365.798 131.976 365.737 131.964 365.679 131.94C365.622 131.917 365.57 131.882 365.527 131.838L364.017 130.346V130.329ZM362.96 133.835C362.834 133.835 362.713 133.784 362.624 133.695C362.534 133.606 362.484 133.485 362.484 133.359C362.484 133.297 362.497 133.235 362.521 133.178C362.545 133.121 362.58 133.069 362.624 133.025C362.668 132.981 362.721 132.947 362.778 132.924C362.836 132.901 362.898 132.889 362.96 132.89H365.087C365.149 132.889 365.211 132.901 365.269 132.924C365.326 132.947 365.379 132.981 365.423 133.025C365.467 133.069 365.502 133.121 365.526 133.178C365.55 133.235 365.563 133.297 365.563 133.359C365.563 133.485 365.512 133.606 365.423 133.695C365.334 133.784 365.213 133.835 365.087 133.835H362.96ZM364.689 137.061C364.599 137.143 364.48 137.187 364.358 137.184C364.236 137.181 364.12 137.131 364.034 137.045C363.947 136.959 363.898 136.843 363.895 136.721C363.892 136.599 363.936 136.48 364.017 136.39L365.527 134.886C365.615 134.798 365.735 134.749 365.86 134.749C365.984 134.749 366.104 134.798 366.192 134.886C366.281 134.975 366.33 135.094 366.33 135.219C366.33 135.344 366.281 135.464 366.192 135.552L364.689 137.061ZM368.189 138.119C368.19 138.181 368.178 138.243 368.155 138.3C368.132 138.358 368.097 138.41 368.054 138.455C368.01 138.499 367.958 138.534 367.901 138.558C367.843 138.582 367.782 138.594 367.72 138.594C367.593 138.594 367.473 138.544 367.383 138.455C367.294 138.366 367.244 138.245 367.244 138.119V135.992C367.244 135.866 367.294 135.745 367.383 135.655C367.473 135.566 367.593 135.516 367.72 135.516C367.782 135.516 367.843 135.529 367.901 135.553C367.958 135.576 368.01 135.612 368.054 135.656C368.097 135.7 368.132 135.752 368.155 135.81C368.178 135.868 368.19 135.929 368.189 135.992V138.119ZM371.416 136.39C371.505 136.479 371.554 136.6 371.554 136.725C371.554 136.851 371.505 136.972 371.416 137.061C371.372 137.105 371.32 137.14 371.263 137.164C371.206 137.187 371.145 137.2 371.083 137.2C371.021 137.2 370.96 137.187 370.903 137.164C370.846 137.14 370.794 137.105 370.75 137.061L369.241 135.552C369.197 135.508 369.162 135.456 369.138 135.399C369.115 135.342 369.102 135.281 369.102 135.219C369.102 135.157 369.115 135.096 369.138 135.039C369.162 134.982 369.197 134.93 369.241 134.886C369.33 134.797 369.451 134.748 369.577 134.748C369.702 134.748 369.823 134.797 369.912 134.886L371.416 136.39ZM372.479 132.89C372.604 132.89 372.723 132.939 372.811 133.027C372.899 133.115 372.949 133.235 372.949 133.359C372.949 133.484 372.899 133.604 372.812 133.693C372.724 133.782 372.604 133.833 372.479 133.835H370.346C370.284 133.835 370.222 133.822 370.165 133.798C370.108 133.774 370.056 133.739 370.012 133.695C369.968 133.651 369.934 133.598 369.911 133.541C369.887 133.483 369.876 133.421 369.877 133.359C369.877 133.235 369.926 133.115 370.014 133.027C370.102 132.939 370.222 132.89 370.346 132.89H372.479ZM370.75 129.663C370.795 129.619 370.848 129.585 370.906 129.562C370.964 129.539 371.027 129.527 371.089 129.528C371.152 129.529 371.214 129.542 371.271 129.567C371.329 129.591 371.381 129.627 371.425 129.672C371.468 129.717 371.503 129.77 371.526 129.828C371.549 129.886 371.561 129.948 371.56 130.011C371.559 130.074 371.546 130.136 371.521 130.193C371.496 130.251 371.46 130.303 371.416 130.346L369.93 131.838C369.887 131.886 369.834 131.924 369.776 131.951C369.717 131.978 369.654 131.992 369.589 131.994C369.525 131.996 369.461 131.984 369.401 131.96C369.341 131.936 369.287 131.9 369.242 131.855C369.196 131.809 369.16 131.755 369.136 131.695C369.112 131.635 369.101 131.571 369.103 131.507C369.104 131.443 369.119 131.379 369.146 131.321C369.172 131.262 369.211 131.21 369.259 131.166L370.75 129.663Z" fill="#C8BFDE"/>
<path fill-rule="evenodd" clip-rule="evenodd" d="M80.2266 81.091C80.2266 81.0286 80.2389 80.9667 80.2628 80.9091C80.2867 80.8514 80.3217 80.799 80.3659 80.7548C80.41 80.7107 80.4624 80.6757 80.5201 80.6518C80.5778 80.6279 80.6396 80.6156 80.702 80.6156C80.7642 80.6156 80.8257 80.6279 80.8831 80.6519C80.9404 80.6759 80.9924 80.711 81.0361 80.7552C81.0798 80.7994 81.1142 80.8519 81.1375 80.9095C81.1607 80.9672 81.1722 81.0288 81.1715 81.091V83.2183C81.1722 83.2805 81.1607 83.3421 81.1375 83.3998C81.1142 83.4574 81.0798 83.5099 81.0361 83.5541C80.9924 83.5983 80.9404 83.6334 80.8831 83.6574C80.8257 83.6814 80.7642 83.6937 80.702 83.6937C80.5759 83.6937 80.455 83.6436 80.3659 83.5545C80.2767 83.4653 80.2266 83.3444 80.2266 83.2183V81.091ZM76.9762 82.8083C76.9285 82.7651 76.8901 82.7126 76.8632 82.654C76.8364 82.5955 76.8218 82.5321 76.8202 82.4677C76.8186 82.4033 76.8301 82.3393 76.854 82.2795C76.8779 82.2197 76.9137 82.1654 76.9593 82.1199C77.0048 82.0743 77.0591 82.0385 77.1189 82.0146C77.1787 81.9907 77.2427 81.9792 77.3071 81.9808C77.3715 81.9824 77.4349 81.997 77.4934 82.0238C77.552 82.0507 77.6045 82.0891 77.6477 82.1368L79.1511 83.6402C79.24 83.7293 79.2899 83.8501 79.2899 83.976C79.2899 84.1018 79.24 84.2226 79.1511 84.3117C79.1075 84.3555 79.0556 84.3903 78.9985 84.4141C78.9414 84.4378 78.8802 84.45 78.8183 84.45C78.7565 84.45 78.6952 84.4378 78.6381 84.4141C78.581 84.3903 78.5292 84.3555 78.4856 84.3117L76.9762 82.8083ZM75.9185 86.3083C75.8564 86.3091 75.7947 86.2975 75.737 86.2743C75.6794 86.251 75.6269 86.2166 75.5827 86.1729C75.5385 86.1293 75.5034 86.0772 75.4794 86.0199C75.4554 85.9625 75.4431 85.901 75.4431 85.8389C75.4431 85.7764 75.4554 85.7146 75.4793 85.6569C75.5032 85.5993 75.5382 85.5469 75.5824 85.5027C75.6265 85.4586 75.6789 85.4236 75.7366 85.3997C75.7943 85.3758 75.8561 85.3635 75.9185 85.3635H78.0458C78.1719 85.3635 78.2928 85.4136 78.382 85.5027C78.4711 85.5919 78.5212 85.7128 78.5212 85.8389C78.5212 85.901 78.5089 85.9625 78.4849 86.0199C78.461 86.0772 78.4258 86.1293 78.3816 86.1729C78.3374 86.2166 78.2849 86.251 78.2273 86.2743C78.1697 86.2975 78.108 86.3091 78.0458 86.3083H75.9185ZM77.6477 89.535C77.5573 89.6169 77.4388 89.6609 77.3168 89.6579C77.1948 89.6549 77.0786 89.6051 76.9924 89.5188C76.9061 89.4325 76.8563 89.3164 76.8533 89.1944C76.8503 89.0724 76.8943 88.9539 76.9762 88.8635L78.4856 87.3601C78.5292 87.3162 78.581 87.2814 78.6381 87.2577C78.6952 87.234 78.7565 87.2218 78.8183 87.2218C78.8802 87.2218 78.9414 87.234 78.9985 87.2577C79.0556 87.2814 79.1075 87.3162 79.1511 87.3601C79.24 87.4492 79.2899 87.5699 79.2899 87.6958C79.2899 87.8217 79.24 87.9424 79.1511 88.0316L77.6477 89.535ZM81.1477 90.5927C81.1485 90.6548 81.1369 90.7165 81.1137 90.7741C81.0904 90.8318 81.056 90.8842 81.0123 90.9285C80.9686 90.9727 80.9166 91.0078 80.8593 91.0318C80.8019 91.0557 80.7404 91.0681 80.6783 91.0681C80.6158 91.0681 80.554 91.0558 80.4963 91.0319C80.4387 91.008 80.3863 90.973 80.3421 90.9288C80.298 90.8847 80.2629 90.8323 80.2391 90.7746C80.2152 90.7169 80.2029 90.6551 80.2029 90.5927V88.4653C80.2029 88.4029 80.2152 88.3411 80.2391 88.2834C80.2629 88.2257 80.298 88.1733 80.3421 88.1292C80.3863 88.0851 80.4387 88.05 80.4963 88.0261C80.554 88.0023 80.6158 87.99 80.6783 87.99C80.7404 87.99 80.8019 88.0023 80.8593 88.0263C80.9166 88.0502 80.9686 88.0853 81.0123 88.1295C81.056 88.1738 81.0904 88.2262 81.1137 88.2839C81.1369 88.3415 81.1485 88.4032 81.1477 88.4653V90.5927ZM84.3743 88.8635C84.4632 88.9526 84.5132 89.0733 84.5132 89.1992C84.5132 89.3251 84.4632 89.4458 84.3743 89.535C84.3307 89.5788 84.2789 89.6136 84.2218 89.6373C84.1647 89.6611 84.1034 89.6733 84.0416 89.6733C83.9797 89.6733 83.9185 89.6611 83.8614 89.6373C83.8043 89.6136 83.7524 89.5788 83.7088 89.535L82.1995 88.0316C82.1175 87.9411 82.0735 87.8227 82.0765 87.7007C82.0795 87.5787 82.1293 87.4625 82.2156 87.3762C82.3019 87.2899 82.4181 87.2401 82.5401 87.2371C82.662 87.2341 82.7805 87.2781 82.871 87.3601L84.3743 88.8635ZM85.4321 85.3635C85.4945 85.3635 85.5563 85.3758 85.614 85.3997C85.6717 85.4236 85.7241 85.4586 85.7682 85.5027C85.8124 85.5469 85.8474 85.5993 85.8713 85.6569C85.8952 85.7146 85.9075 85.7764 85.9075 85.8389C85.9075 85.901 85.8951 85.9625 85.8712 86.0199C85.8472 86.0772 85.8121 86.1293 85.7679 86.1729C85.7236 86.2166 85.6712 86.251 85.6135 86.2743C85.5559 86.2975 85.4942 86.3091 85.4321 86.3083H83.3047C83.1802 86.3083 83.0608 86.2588 82.9728 86.1708C82.8848 86.0828 82.8353 85.9634 82.8353 85.8389C82.8345 85.7767 82.8461 85.715 82.8693 85.6574C82.8925 85.5997 82.927 85.5473 82.9707 85.5031C83.0143 85.4588 83.0664 85.4237 83.1237 85.3998C83.1811 85.3758 83.2426 85.3635 83.3047 85.3635H85.4321ZM83.7088 82.1368C83.7524 82.093 83.8043 82.0582 83.8614 82.0345C83.9185 82.0107 83.9797 81.9985 84.0416 81.9985C84.1034 81.9985 84.1647 82.0107 84.2218 82.0345C84.2789 82.0582 84.3307 82.093 84.3743 82.1368C84.4632 82.2259 84.5132 82.3467 84.5132 82.4726C84.5132 82.5984 84.4632 82.7192 84.3743 82.8083L82.9185 84.3236C82.8753 84.3713 82.8228 84.4097 82.7642 84.4366C82.7057 84.4634 82.6423 84.478 82.5779 84.4796C82.5135 84.4812 82.4495 84.4697 82.3897 84.4458C82.3299 84.4219 82.2756 84.3861 82.2301 84.3405C82.1845 84.295 82.1487 84.2407 82.1248 84.1809C82.1009 84.1211 82.0894 84.0571 82.091 83.9927C82.0926 83.9283 82.1072 83.8649 82.134 83.8064C82.1609 83.7478 82.1993 83.6953 82.247 83.6521L83.7088 82.1368Z" fill="#C8BFDE"/>
<path d="M3.57131 83.9967H0.89134C0.399067 83.9967 0 84.3958 0 84.8881V87.568C0 88.0603 0.399067 88.4594 0.89134 88.4594H3.57131C4.06358 88.4594 4.46265 88.0603 4.46265 87.568V84.8881C4.46265 84.3958 4.06358 83.9967 3.57131 83.9967Z" fill="#DCD7EB"/>
<path d="M12.7163 83.9967H10.0364C9.54409 83.9967 9.14502 84.3958 9.14502 84.8881V87.568C9.14502 88.0603 9.54409 88.4594 10.0364 88.4594H12.7163C13.2086 88.4594 13.6077 88.0603 13.6077 87.568V84.8881C13.6077 84.3958 13.2086 83.9967 12.7163 83.9967Z" fill="#DCD7EB"/>
<path d="M21.8677 83.9967H19.1877C18.6955 83.9967 18.2964 84.3958 18.2964 84.8881V87.568C18.2964 88.0603 18.6955 88.4594 19.1877 88.4594H21.8677C22.36 88.4594 22.759 88.0603 22.759 87.568V84.8881C22.759 84.3958 22.36 83.9967 21.8677 83.9967Z" fill="#DCD7EB"/>
<path d="M31.0127 83.9967H28.3327C27.8405 83.9967 27.4414 84.3958 27.4414 84.8881V87.568C27.4414 88.0603 27.8405 88.4594 28.3327 88.4594H31.0127C31.505 88.4594 31.9041 88.0603 31.9041 87.568V84.8881C31.9041 84.3958 31.505 83.9967 31.0127 83.9967Z" fill="#DCD7EB"/>
<path fill-rule="evenodd" clip-rule="evenodd" d="M350.802 16.6886C350.794 16.6221 350.801 16.5548 350.821 16.4911C350.842 16.4273 350.875 16.3686 350.92 16.3187C350.964 16.2689 351.019 16.229 351.08 16.2016C351.141 16.1743 351.207 16.1602 351.274 16.1602C351.341 16.1602 351.407 16.1743 351.468 16.2016C351.529 16.229 351.584 16.2689 351.629 16.3187C351.673 16.3686 351.707 16.4273 351.727 16.4911C351.747 16.5548 351.754 16.6221 351.747 16.6886V18.816C351.754 18.8825 351.747 18.9498 351.727 19.0135C351.707 19.0773 351.673 19.136 351.629 19.1859C351.584 19.2357 351.529 19.2756 351.468 19.303C351.407 19.3303 351.341 19.3444 351.274 19.3444C351.207 19.3444 351.141 19.3303 351.08 19.303C351.019 19.2756 350.964 19.2357 350.92 19.1859C350.875 19.136 350.842 19.0773 350.821 19.0135C350.801 18.9498 350.794 18.8825 350.802 18.816V16.6886ZM347.575 18.4178C347.527 18.3746 347.489 18.3221 347.462 18.2636C347.435 18.205 347.421 18.1416 347.419 18.0773C347.417 18.0129 347.429 17.9488 347.453 17.8891C347.477 17.8293 347.513 17.7749 347.558 17.7294C347.604 17.6839 347.658 17.6481 347.718 17.6242C347.778 17.6002 347.842 17.5887 347.906 17.5903C347.97 17.5919 348.034 17.6065 348.092 17.6334C348.151 17.6602 348.203 17.6986 348.247 17.7464L349.726 19.2557C349.77 19.2993 349.805 19.3512 349.829 19.4083C349.852 19.4654 349.865 19.5266 349.865 19.5885C349.865 19.6503 349.852 19.7115 349.829 19.7686C349.805 19.8258 349.77 19.8776 349.726 19.9212C349.637 20.0101 349.516 20.0601 349.39 20.0601C349.265 20.0601 349.144 20.0101 349.055 19.9212L347.551 18.4178H347.575ZM346.517 21.9178C346.455 21.9186 346.394 21.9071 346.336 21.8838C346.278 21.8606 346.226 21.8261 346.182 21.7825C346.137 21.7388 346.102 21.6868 346.078 21.6294C346.054 21.5721 346.042 21.5105 346.042 21.4484C346.042 21.3223 346.092 21.2014 346.181 21.1122C346.27 21.0231 346.391 20.973 346.517 20.973H348.645C348.771 20.973 348.892 21.0231 348.981 21.1122C349.07 21.2014 349.12 21.3223 349.12 21.4484C349.12 21.5105 349.108 21.5721 349.084 21.6294C349.06 21.6868 349.025 21.7388 348.981 21.7825C348.936 21.8261 348.884 21.8606 348.826 21.8838C348.769 21.9071 348.707 21.9186 348.645 21.9178H346.517ZM348.247 25.1683C348.157 25.2572 348.037 25.3071 347.911 25.3071C347.785 25.3071 347.664 25.2572 347.575 25.1683C347.531 25.1246 347.496 25.0728 347.473 25.0157C347.449 24.9586 347.437 24.8973 347.437 24.8355C347.437 24.7736 347.449 24.7124 347.473 24.6553C347.496 24.5982 347.531 24.5463 347.575 24.5027L349.078 22.9934C349.169 22.9423 349.274 22.9222 349.377 22.9363C349.479 22.9503 349.575 22.9977 349.648 23.0712C349.722 23.1446 349.769 23.2401 349.783 23.343C349.797 23.4459 349.777 23.5506 349.726 23.6411L348.247 25.1683ZM351.747 26.226C351.754 26.2925 351.747 26.3598 351.727 26.4235C351.707 26.4873 351.673 26.546 351.629 26.5959C351.584 26.6458 351.529 26.6857 351.468 26.713C351.407 26.7403 351.341 26.7544 351.274 26.7544C351.207 26.7544 351.141 26.7403 351.08 26.713C351.019 26.6857 350.964 26.6458 350.92 26.5959C350.875 26.546 350.842 26.4873 350.821 26.4235C350.801 26.3598 350.794 26.2925 350.802 26.226V24.0749C350.815 23.9587 350.87 23.8514 350.957 23.7735C351.044 23.6956 351.157 23.6526 351.274 23.6526C351.391 23.6526 351.504 23.6956 351.591 23.7735C351.678 23.8514 351.734 23.9587 351.747 24.0749V26.2022V26.226ZM354.973 24.5027C355.017 24.5463 355.052 24.5982 355.076 24.6553C355.099 24.7124 355.112 24.7736 355.112 24.8355C355.112 24.8973 355.099 24.9586 355.076 25.0157C355.052 25.0728 355.017 25.1246 354.973 25.1683C354.884 25.2572 354.763 25.3071 354.638 25.3071C354.512 25.3071 354.391 25.2572 354.302 25.1683L352.798 23.6649C352.751 23.6216 352.712 23.5691 352.685 23.5106C352.659 23.452 352.644 23.3887 352.642 23.3243C352.641 23.2599 352.652 23.1959 352.676 23.1361C352.7 23.0763 352.736 23.022 352.781 22.9764C352.827 22.9309 352.881 22.8951 352.941 22.8712C353.001 22.8473 353.065 22.8358 353.129 22.8373C353.194 22.8389 353.257 22.8536 353.316 22.8804C353.374 22.9072 353.427 22.9457 353.47 22.9934L354.973 24.5027ZM356.031 20.9968C356.157 20.9968 356.278 21.0469 356.367 21.136C356.456 21.2252 356.506 21.3461 356.506 21.4722C356.506 21.5343 356.494 21.5958 356.47 21.6532C356.446 21.7105 356.411 21.7626 356.367 21.8062C356.323 21.8499 356.27 21.8843 356.212 21.9076C356.155 21.9308 356.093 21.9424 356.031 21.9416H353.886C353.824 21.9424 353.762 21.9308 353.704 21.9076C353.647 21.8843 353.594 21.8499 353.55 21.8062C353.506 21.7626 353.471 21.7105 353.447 21.6532C353.423 21.5958 353.41 21.5343 353.41 21.4722C353.41 21.3461 353.461 21.2252 353.55 21.136C353.639 21.0469 353.76 20.9968 353.886 20.9968H356.031ZM354.302 17.7701C354.345 17.7224 354.397 17.684 354.456 17.6571C354.515 17.6303 354.578 17.6157 354.642 17.6141C354.707 17.6125 354.771 17.624 354.831 17.6479C354.89 17.6718 354.945 17.7076 354.99 17.7532C355.036 17.7987 355.072 17.853 355.095 17.9128C355.119 17.9726 355.131 18.0366 355.129 18.101C355.128 18.1654 355.113 18.2288 355.086 18.2873C355.059 18.3459 355.021 18.3984 354.973 18.4416L353.47 19.945C353.381 20.0339 353.26 20.0838 353.134 20.0838C353.008 20.0838 352.887 20.0339 352.798 19.945C352.755 19.9014 352.72 19.8495 352.696 19.7924C352.672 19.7353 352.66 19.6741 352.66 19.6122C352.66 19.5504 352.672 19.4892 352.696 19.432C352.72 19.3749 352.755 19.3231 352.798 19.2795L354.302 17.7701Z" fill="#C8BFDE"/>
<path d="M122.975 60.602H104.709V66.1402H122.975V60.602Z" fill="#DCD7EB"/>
<path fill-rule="evenodd" clip-rule="evenodd" d="M187.14 105.746C183.845 104.801 180.763 103.231 178.06 101.122C173.502 97.5987 171.672 96.22 166.722 100.023C161.772 103.826 171.476 113.304 171.476 113.304L181.055 115.491L187.14 113.387V105.746Z" fill="#DCDDE8"/>
<path fill-rule="evenodd" clip-rule="evenodd" d="M194.585 105.746C197.88 104.799 200.962 103.229 203.665 101.122C208.217 97.5987 210.053 96.22 215.003 100.023C219.953 103.826 210.249 113.304 210.249 113.304L200.67 115.491L194.585 113.387V105.746Z" fill="#DCDDE8"/>
<path fill-rule="evenodd" clip-rule="evenodd" d="M203.635 111.884C203.635 111.884 237.916 95.6436 243.484 89.8974C249.052 84.1513 251.869 75.8915 260.931 52.3423C260.931 52.3423 261.264 51.243 262.993 51.4272C264.722 51.6114 269.488 53.5129 270.124 54.3508C270.459 54.7277 270.696 55.181 270.815 55.671C270.934 56.1611 270.931 56.6728 270.807 57.1615C270.528 58.2786 259.475 95.0613 256.545 100.51C253.616 105.959 225.753 129.217 220.428 134.346C215.104 139.474 203.635 111.884 203.635 111.884Z" fill="#C9CBDC"/>
<path fill-rule="evenodd" clip-rule="evenodd" d="M178.09 111.884C178.09 111.884 143.803 95.6436 138.241 89.8974C132.679 84.1513 129.857 75.8915 120.789 52.3423C120.789 52.3423 120.456 51.243 118.733 51.4272C117.009 51.6114 112.238 53.5129 111.602 54.3508C111.269 54.7293 111.034 55.1827 110.915 55.6721C110.796 56.1616 110.797 56.6726 110.918 57.1615C111.204 58.2786 122.25 95.0613 125.18 100.51C128.109 105.959 155.973 129.217 161.297 134.346C166.621 139.474 178.09 111.884 178.09 111.884Z" fill="#C9CBDC"/>
<path fill-rule="evenodd" clip-rule="evenodd" d="M193.445 120.565L191.84 120.797H189.879L188.275 120.565L178.821 111.616L158.284 121.647L160.435 158.079C161.172 169.464 158.569 194.541 159.841 199.39C160.18 200.685 162.901 203.781 162.901 203.781C162.794 204.601 162.681 205.475 162.557 206.39C167.465 208.452 176.598 211.096 190.889 210.971C205.187 211.096 214.32 208.452 219.228 206.39C219.103 205.475 218.984 204.607 218.878 203.781C218.878 203.781 221.605 200.685 221.938 199.39C223.198 194.541 220.595 169.464 221.344 158.079L223.495 121.647L202.958 111.616L193.445 120.565Z" fill="#C9CBDC"/>
<path fill-rule="evenodd" clip-rule="evenodd" d="M179.469 112.24L178.809 111.616L158.272 121.647L160.424 158.079C161.16 169.464 158.558 194.541 159.829 199.39C160.168 200.685 162.89 203.781 162.89 203.781C162.783 204.601 162.67 205.475 162.545 206.39C166.413 208.012 172.908 210.003 182.487 210.71L183.081 209.587C183.081 209.587 189.618 201.612 180.598 121.118C180.247 118.01 179.879 115.063 179.492 112.24H179.469ZM197.224 210.834C207.92 210.282 215.051 208.125 219.21 206.39C219.086 205.475 218.967 204.607 218.86 203.781C218.86 203.781 221.587 200.685 221.92 199.39C223.18 194.541 220.577 169.464 221.326 158.079L223.477 121.647L204.794 112.52C202.085 115.74 199.244 119.692 198.026 123.275L196.784 128.451C196.784 128.451 199.238 132.486 199.423 133.698C199.607 134.91 195.305 186.34 197.224 210.834Z" fill="#A9ACC4"/>
<path fill-rule="evenodd" clip-rule="evenodd" d="M203.635 111.884C203.635 111.884 212.204 107.825 221.462 103.048C223.459 106.459 227.006 111.504 230.81 112.139C236.627 113.108 248.636 102.079 251.655 98.8049C254.674 95.5307 259.053 74.9288 259.416 73.1105C259.671 71.821 256.759 69.0935 255.042 67.6199C256.7 63.383 258.607 58.3618 260.925 52.3363C260.925 52.3363 261.258 51.237 262.987 51.4212C264.716 51.6054 269.482 53.507 270.118 54.3448C270.453 54.7218 270.69 55.1751 270.809 55.6651C270.928 56.1551 270.926 56.6669 270.801 57.1555C270.522 58.2727 259.469 95.0553 256.54 100.504C253.61 105.953 225.747 129.211 220.422 134.34C215.098 139.468 203.635 111.884 203.635 111.884Z" fill="#A3A5BD"/>
<path fill-rule="evenodd" clip-rule="evenodd" d="M126.458 67.0732C124.859 62.9492 123.011 58.1063 120.789 52.3363C120.789 52.3363 120.456 51.237 118.733 51.4212C117.009 51.6054 112.238 53.507 111.602 54.3448C111.269 54.7234 111.034 55.1767 110.915 55.6662C110.796 56.1557 110.797 56.6667 110.918 57.1555C111.204 58.2727 122.25 95.0553 125.18 100.504C128.032 105.811 154.463 127.952 160.804 133.876C162.117 133.371 163.086 132.967 163.294 132.866C164.019 132.498 170.205 122.318 170.205 122.318L163.329 116.085C163.329 116.085 157.001 120.75 152.883 118.931C148.765 117.113 130.338 104.022 128.032 98.9297C125.727 93.8372 118.489 70.1453 119.036 69.4501C119.582 68.7548 123.671 66.9008 124.639 66.8414C125.252 66.853 125.862 66.9307 126.458 67.0732Z" fill="#A3A5BD"/>
<path fill-rule="evenodd" clip-rule="evenodd" d="M201.918 109.317C194.467 106.096 187.259 106.096 179.807 109.317L181.097 112.757H200.623L201.918 109.317Z" fill="#1F1F40"/>
<path fill-rule="evenodd" clip-rule="evenodd" d="M193.445 120.565L191.84 120.797H189.879L188.275 120.565L181.923 114.552L180.978 114.849L178.946 117.523C178.946 117.523 183.575 128.261 183.848 128.623C184.121 128.986 184.603 129.17 185.298 128.32C185.993 127.47 188.18 124.713 188.18 124.713C188.18 124.713 188.816 124.042 189.113 124.796C189.41 125.551 192.678 123.477 192.678 123.477L192.91 124.208C192.91 124.208 193.409 123.614 193.902 124.386C194.395 125.159 196.814 128.546 196.98 128.7C197.147 128.855 197.89 129.348 198.401 128.29C198.87 127.328 204.378 114.956 205.341 112.799L202.923 111.611L193.445 120.565Z" fill="#A9ACC4"/>
<path fill-rule="evenodd" clip-rule="evenodd" d="M193.445 120.565L191.84 120.797H189.879L188.275 120.565L187.645 119.971L186.314 122.271C186.314 122.271 189.285 123.24 189.285 125.836V210.971H192.452V125.86C192.452 123.24 195.423 122.295 195.423 122.295L194.092 119.989L193.445 120.565Z" fill="#9C9DB6"/>
<path fill-rule="evenodd" clip-rule="evenodd" d="M190.86 93.641C193.082 93.6473 195.211 94.5327 196.782 96.1037C198.353 97.6748 199.238 99.8038 199.244 102.026V113.114C199.238 115.336 198.353 117.465 196.782 119.036C195.211 120.607 193.082 121.492 190.86 121.498C188.638 121.492 186.509 120.607 184.938 119.036C183.367 117.465 182.482 115.336 182.475 113.114V102.026C182.482 99.8038 183.367 97.6748 184.938 96.1037C186.509 94.5327 188.638 93.6473 190.86 93.641Z" fill="#E8685B"/>
<path fill-rule="evenodd" clip-rule="evenodd" d="M188.905 119.793L189.879 119.65C190.007 119.808 190.083 120.001 190.099 120.203C190.099 120.548 190.147 121.57 190.147 121.57C189.796 121.694 187.912 122.075 187.972 121.807C187.972 121.724 188.905 119.793 188.905 119.793Z" fill="#9C9DB6"/>
<path fill-rule="evenodd" clip-rule="evenodd" d="M192.815 119.793L191.858 119.627C191.731 119.784 191.654 119.977 191.638 120.179C191.638 120.524 191.591 121.546 191.591 121.546C191.941 121.819 193.825 122.051 193.765 121.784C193.754 121.724 192.815 119.793 192.815 119.793Z" fill="#9C9DB6"/>
<path fill-rule="evenodd" clip-rule="evenodd" d="M201.918 109.317C202.025 109.412 203.214 111.498 203.832 112.502C204.011 112.839 204.117 113.21 204.142 113.591C204.168 113.972 204.113 114.354 203.98 114.712C203.547 116.085 198.199 127.464 198.199 127.464C198.199 127.464 197.818 128.059 197.2 127.464C196.582 126.87 191.858 119.65 191.858 119.65L200.772 110.256C201.17 109.703 201.811 109.222 201.918 109.317Z" fill="#333258"/>
<path fill-rule="evenodd" clip-rule="evenodd" d="M179.807 109.317C179.73 109.352 178.512 111.498 177.894 112.502C177.713 112.838 177.606 113.21 177.58 113.591C177.555 113.972 177.611 114.355 177.745 114.712C178.155 116.091 183.545 127.464 183.545 127.464C183.545 127.464 183.931 128.059 184.549 127.464C185.167 126.87 189.879 119.65 189.879 119.65L180.966 110.256C180.372 109.548 179.878 109.281 179.807 109.317Z" fill="#333258"/>
<path fill-rule="evenodd" clip-rule="evenodd" d="M162.123 207.596C160.994 215.743 159.318 226.469 158.1 231.181H223.388C222.283 226.896 220.797 217.638 219.686 209.872C219.513 208.683 219.353 207.495 219.199 206.378C211.563 209.593 193.724 214.222 162.123 207.596Z" fill="#232447"/>
<path fill-rule="evenodd" clip-rule="evenodd" d="M213.559 231.193H223.388C222.282 226.908 220.797 217.65 219.686 209.884C219.567 209.034 219.448 208.202 219.335 207.4C217.798 207.474 216.27 207.672 214.766 207.994C213.577 208.351 212.282 208.701 210.85 209.034L205.543 210.787L205.044 210.104C195.412 211.482 181.726 211.607 163.252 207.857C162.866 207.893 162.468 207.947 162.064 208.012C160.94 216.034 159.324 226.379 158.124 231.086L158.213 231.211H160.311L162.729 216.593C162.729 216.593 163.395 213.877 168.047 213.752C172.7 213.627 175.178 214.055 181.637 214.905C187.519 215.564 193.454 215.584 199.339 214.964C202.429 214.56 204.277 214.875 205.484 215.79C206.76 216.808 207.952 217.927 209.049 219.136C211.212 221.537 212.656 226.611 213.559 231.193Z" fill="#1F1F40"/>
<path fill-rule="evenodd" clip-rule="evenodd" d="M221.718 231.193L221.635 230.753C221.628 230.703 221.618 230.653 221.605 230.604C219.692 220.901 218.283 211.048 217.731 206.972C217.481 207.103 217.22 207.228 216.958 207.352C217.517 211.435 218.836 220.598 220.625 229.844C219.721 229.25 218.248 228.233 217.968 227.366C217.463 225.922 213.916 211.007 213.904 210.959C213.839 210.674 213.607 210.502 213.393 210.579C213.279 210.641 213.189 210.74 213.141 210.861C213.092 210.981 213.086 211.115 213.125 211.239C213.125 211.28 216.691 226.261 217.232 227.776C217.772 229.291 220.203 230.747 220.886 231.163L221.718 231.193Z" fill="#333258"/>
<path fill-rule="evenodd" clip-rule="evenodd" d="M219.662 209.551C215.199 210.965 205.745 213.437 190.86 213.586C175.713 213.431 166.205 210.84 161.832 209.474C161.422 209.349 161.392 209.052 161.511 208.238C161.683 207.049 161.844 205.908 161.986 204.845C162.111 203.947 162.337 203.882 162.616 203.971C165.635 204.969 174.637 207.97 190.86 208.131C206.731 207.964 215.74 205.243 218.901 204.048C219.115 203.965 219.579 203.704 219.733 204.809C219.858 205.748 220.001 206.746 220.149 207.78C220.321 208.992 220.185 209.379 219.662 209.551Z" fill="#595B84"/>
<path d="M175.566 206.938L174.957 212.622C174.927 212.899 175.128 213.148 175.405 213.178L175.978 213.239C176.256 213.269 176.505 213.068 176.534 212.791L177.144 207.107C177.174 206.83 176.973 206.581 176.696 206.551L176.122 206.489C175.845 206.46 175.596 206.66 175.566 206.938Z" fill="#1F1F40"/>
<path fill-rule="evenodd" clip-rule="evenodd" d="M185.161 207.168H196.333C196.534 207.168 196.728 207.248 196.871 207.391C197.013 207.534 197.093 207.727 197.093 207.929V213.978C197.092 214.179 197.011 214.372 196.869 214.514C196.727 214.656 196.534 214.737 196.333 214.739H185.161C184.96 214.739 184.766 214.658 184.623 214.516C184.481 214.373 184.401 214.18 184.401 213.978V207.929C184.401 207.727 184.481 207.534 184.623 207.391C184.766 207.248 184.96 207.168 185.161 207.168ZM186.57 208.903C186.515 208.903 186.461 208.914 186.411 208.935C186.361 208.956 186.316 208.987 186.278 209.025C186.239 209.064 186.209 209.11 186.189 209.16C186.169 209.211 186.159 209.265 186.16 209.319V212.587C186.16 212.697 186.203 212.802 186.279 212.88C186.356 212.957 186.46 213.002 186.57 213.003H194.918C195.028 213.002 195.132 212.957 195.209 212.88C195.285 212.802 195.328 212.697 195.328 212.587V209.319C195.329 209.265 195.319 209.211 195.299 209.16C195.279 209.11 195.249 209.064 195.21 209.025C195.172 208.987 195.127 208.956 195.077 208.935C195.027 208.914 194.973 208.903 194.918 208.903H186.57Z" fill="white"/>
<path fill-rule="evenodd" clip-rule="evenodd" d="M204.794 206.556L205.389 206.491C205.455 206.483 205.522 206.489 205.586 206.508C205.65 206.527 205.71 206.558 205.762 206.6C205.814 206.642 205.857 206.694 205.889 206.753C205.921 206.811 205.94 206.876 205.947 206.942L206.541 212.623C206.555 212.756 206.515 212.889 206.43 212.993C206.345 213.096 206.223 213.162 206.09 213.176L205.495 213.241C205.429 213.248 205.362 213.243 205.298 213.224C205.234 213.205 205.174 213.174 205.122 213.132C205.07 213.09 205.027 213.038 204.995 212.979C204.963 212.92 204.944 212.856 204.937 212.789L204.343 207.109C204.335 207.043 204.341 206.976 204.36 206.912C204.379 206.848 204.41 206.789 204.452 206.737C204.494 206.686 204.546 206.643 204.605 206.612C204.664 206.581 204.728 206.562 204.794 206.556Z" fill="#01051A"/>
<path fill-rule="evenodd" clip-rule="evenodd" d="M214.415 204.69L215.009 204.577C215.142 204.553 215.278 204.582 215.389 204.657C215.501 204.733 215.578 204.849 215.603 204.981L216.685 210.591C216.709 210.723 216.681 210.86 216.605 210.971C216.529 211.082 216.413 211.159 216.281 211.185L215.716 211.292C215.651 211.306 215.584 211.306 215.518 211.294C215.453 211.281 215.391 211.256 215.335 211.218C215.28 211.181 215.232 211.133 215.196 211.078C215.159 211.022 215.134 210.959 215.122 210.894L214.041 205.278C214.014 205.151 214.038 205.018 214.108 204.908C214.178 204.798 214.288 204.72 214.415 204.69Z" fill="#01051A"/>
<path d="M166.049 204.989L164.968 210.602C164.915 210.876 165.094 211.141 165.368 211.193L165.934 211.302C166.208 211.355 166.473 211.176 166.526 210.902L167.607 205.289C167.659 205.015 167.48 204.75 167.206 204.697L166.64 204.588C166.366 204.535 166.101 204.715 166.049 204.989Z" fill="#1F1F40"/>
<path fill-rule="evenodd" clip-rule="evenodd" d="M173.241 83.5511C173.117 83.5666 172.994 83.5884 172.873 83.6165C171.761 83.8526 170.762 84.4598 170.041 85.3384C169.32 86.217 168.919 87.3147 168.904 88.4513C168.889 89.5879 169.261 90.6957 169.959 91.5928C170.657 92.4899 171.64 93.1229 172.745 93.3879C173.851 93.6529 175.013 93.5341 176.042 93.0509C177.071 92.5678 177.905 91.7491 178.407 90.7293C178.909 89.7096 179.049 88.5494 178.805 87.4393C178.561 86.3292 177.946 85.3353 177.062 84.6207C177.187 86.1004 176.949 87.9365 175.065 88.1207L175.119 85.2269C175.112 84.9912 175.058 84.7594 174.959 84.5457C174.859 84.3319 174.717 84.1406 174.541 83.9837C174.366 83.8268 174.16 83.7075 173.936 83.6331C173.712 83.5587 173.476 83.5308 173.241 83.5511Z" fill="#E8685B"/>
<path fill-rule="evenodd" clip-rule="evenodd" d="M209.394 83.5511C209.519 83.5511 209.637 83.5868 209.762 83.6165C210.877 83.8475 211.879 84.4511 212.605 85.3278C213.33 86.2046 213.736 87.3023 213.754 88.4402C213.773 89.5781 213.403 90.6883 212.706 91.5882C212.01 92.4881 211.027 93.1239 209.921 93.391C208.815 93.6581 207.651 93.5405 206.62 93.0576C205.589 92.5748 204.754 91.7554 204.251 90.7344C203.749 89.7134 203.609 88.5517 203.854 87.4404C204.1 86.3292 204.716 85.3347 205.603 84.6207C205.478 86.1004 205.71 87.9365 207.599 88.1207L207.546 85.2269C207.552 84.9937 207.605 84.7641 207.702 84.5521C207.799 84.34 207.938 84.1499 208.111 83.9932C208.284 83.8366 208.486 83.7166 208.707 83.6406C208.928 83.5646 209.161 83.5342 209.394 83.5511Z" fill="#E8685B"/>
<path fill-rule="evenodd" clip-rule="evenodd" d="M191.305 58.5104C186.758 58.5276 182.401 60.3418 179.185 63.5576C175.97 66.7733 174.155 71.1299 174.138 75.6776V92.7735C174.155 97.3213 175.97 101.678 179.185 104.894C182.401 108.109 186.758 109.924 191.305 109.941C195.852 109.922 200.207 108.107 203.422 104.891C206.636 101.676 208.449 97.3202 208.467 92.7735V75.6776C208.449 71.1309 206.636 66.7753 203.422 63.5597C200.207 60.3441 195.852 58.5292 191.305 58.5104Z" fill="#F4AD85"/>
<path fill-rule="evenodd" clip-rule="evenodd" d="M177.436 65.5757C176.19 67.2753 175.269 69.1914 174.721 71.2268L177.181 73.8176H196.273C199.185 73.8176 201.728 74.3643 201.728 76.4857C201.728 78.6071 203.232 82.0477 205.424 82.636V92.1139C205.424 94.7582 204.604 97.3312 203.303 97.6699L201.17 100.712L199.821 99.8032C199.821 99.8032 198.442 102.352 194.806 102.352H183.759L182.963 105.324L185.577 107.504L198.02 108.562C201.113 107.237 203.75 105.036 205.606 102.231C207.462 99.4252 208.457 96.1376 208.467 92.7735V75.6776C208.464 73.2275 207.936 70.8066 206.918 68.578C205.9 66.3495 204.416 64.3652 202.566 62.7591C194.36 63.7039 177.496 65.5757 177.436 65.5757Z" fill="#F09373"/>
<path fill-rule="evenodd" clip-rule="evenodd" d="M191.305 57.8508C195.499 57.8339 199.596 59.1077 203.041 61.4993C208.389 65.2489 209.53 70.7217 209.53 74.7981V83.5273C209.53 83.5273 208.467 84.894 208.467 88.3762C206.939 88.3762 206.785 86.7421 206.785 85.1198V82.2259C203.422 82.2259 203.018 73.2293 203.647 72.1538C204.158 71.2803 205.745 68.9628 206.304 68.2854C206.304 68.2854 206.535 67.9764 206.304 67.8397C206.072 67.703 205.888 67.9288 204.937 68.9034C204.136 69.7605 203.239 70.5222 202.263 71.1733C201.425 71.6071 198.698 71.0426 197.349 71.0426H185.256C183.925 71.0426 181.18 71.6071 180.342 71.1733C179.367 70.5206 178.47 69.7591 177.668 68.9034C176.717 67.9288 176.533 67.7149 176.301 67.8397C176.069 67.9645 176.301 68.2854 176.301 68.2854C176.86 68.9628 178.452 71.2565 178.957 72.1538C179.587 73.2293 179.183 82.2259 175.82 82.2259V85.1198C175.82 86.7421 175.665 88.3762 174.138 88.3762C174.138 84.894 173.074 83.5273 173.074 83.5273V74.8219C173.074 70.7455 174.221 65.2726 179.569 61.5231C183.011 59.1223 187.109 57.8401 191.305 57.8508Z" fill="#333258"/>
<path fill-rule="evenodd" clip-rule="evenodd" d="M176.301 67.8635C176.533 67.7268 176.717 67.9526 177.668 68.9272C178.47 69.7829 179.367 70.5444 180.342 71.1971C181.18 71.6309 183.907 71.0664 185.256 71.0664H197.349C198.68 71.0664 201.425 71.6309 202.263 71.1971C203.239 70.546 204.136 69.7843 204.937 68.9272C205.888 67.9526 206.072 67.7387 206.304 67.8635C206.535 67.9883 206.304 68.3092 206.304 68.3092L206.619 67.9407L207.665 66.7107C206.562 64.6357 204.976 62.8564 203.041 61.5231C199.589 59.1465 195.497 57.874 191.305 57.874C187.114 57.874 183.022 59.1465 179.569 61.5231C177.633 62.8564 176.046 64.6356 174.94 66.7107L175.986 67.9407L176.301 68.3092C176.301 68.3092 176.069 68.0002 176.301 67.8635Z" fill="#1F1F40"/>
<path fill-rule="evenodd" clip-rule="evenodd" d="M205.359 63.5078C204.943 63.0743 204.503 62.6656 204.04 62.2837C199.482 64.4348 189.701 67.602 181.952 60.091C181.125 60.5076 180.33 60.9864 179.575 61.5231C178.531 62.2466 177.583 63.0991 176.753 64.0604C180.052 66.5067 183.955 68.0102 188.043 68.4102C195.56 69.2955 201.936 65.8847 205.359 63.5078Z" fill="#333258"/>
<path fill-rule="evenodd" clip-rule="evenodd" d="M186.742 92.3575C186.694 93.5718 187.132 94.7552 187.957 95.6472C188.782 96.5393 189.928 97.067 191.142 97.1143C192.356 97.1616 193.54 96.7245 194.432 95.8993C195.324 95.0741 195.852 93.9283 195.899 92.714C195.907 92.5054 195.832 92.302 195.691 92.1484C195.549 91.9947 195.353 91.9033 195.144 91.894L187.586 91.5969C187.482 91.5929 187.378 91.6095 187.281 91.6455C187.183 91.6816 187.094 91.7366 187.018 91.8072C186.942 91.8778 186.88 91.9628 186.837 92.0572C186.794 92.1517 186.769 92.2537 186.766 92.3575H186.742Z" fill="#1F1F40"/>
<path fill-rule="evenodd" clip-rule="evenodd" d="M188.311 95.9883C189.027 96.6119 189.92 96.9977 190.865 97.0924C191.81 97.1872 192.761 96.9861 193.587 96.5171C193.38 96.0055 193.029 95.565 192.576 95.2486C192.124 94.9323 191.59 94.7537 191.038 94.7344C190.512 94.6734 189.98 94.758 189.499 94.9791C189.018 95.2002 188.607 95.5493 188.311 95.9883Z" fill="#E74862"/>
<path fill-rule="evenodd" clip-rule="evenodd" d="M195.227 91.9059L188.126 91.6266C188.039 91.961 188.061 92.3145 188.189 92.6353C188.318 92.9562 188.545 93.2274 188.839 93.4093C189.475 93.6411 194.621 93.7124 194.995 93.3202C195.199 92.8784 195.279 92.3896 195.227 91.9059Z" fill="white"/>
<path fill-rule="evenodd" clip-rule="evenodd" d="M201.336 88.4178C200.875 88.4085 200.422 88.5359 200.034 88.7841C199.646 89.0322 199.34 89.3898 199.155 89.8118C198.97 90.2337 198.915 90.701 198.995 91.1545C199.076 91.6081 199.289 92.0275 199.608 92.3598C199.927 92.6921 200.338 92.9224 200.788 93.0215C201.238 93.1206 201.707 93.0841 202.136 92.9166C202.565 92.749 202.935 92.458 203.199 92.0803C203.462 91.7027 203.608 91.2552 203.618 90.7947C203.624 90.4888 203.57 90.1846 203.459 89.8996C203.347 89.6145 203.181 89.3542 202.969 89.1335C202.757 88.9128 202.504 88.736 202.224 88.6131C201.944 88.4903 201.642 88.424 201.336 88.4178Z" fill="#E8685B"/>
<path fill-rule="evenodd" clip-rule="evenodd" d="M181.317 88.0375C180.856 88.0282 180.403 88.1557 180.015 88.4038C179.627 88.6519 179.321 89.0096 179.136 89.4315C178.951 89.8534 178.896 90.3207 178.976 90.7743C179.057 91.2278 179.27 91.6473 179.589 91.9796C179.908 92.3119 180.319 92.5422 180.768 92.6413C181.218 92.7403 181.688 92.7038 182.117 92.5363C182.546 92.3688 182.916 92.0778 183.179 91.7001C183.443 91.3224 183.589 90.875 183.598 90.4144C183.605 90.1085 183.551 89.8044 183.439 89.5193C183.328 89.2343 183.162 88.974 182.95 88.7533C182.738 88.5325 182.485 88.3557 182.204 88.2329C181.924 88.1101 181.623 88.0437 181.317 88.0375Z" fill="#E8685B"/>
<path fill-rule="evenodd" clip-rule="evenodd" d="M188.952 86.9679C188.444 87.6049 188.023 88.3062 187.698 89.0536C187.615 89.6478 188.887 89.9509 189.755 89.7132C190.349 89.5409 190.283 88.1504 190.099 87.2769C189.879 86.332 189.636 86.0468 188.952 86.9679Z" fill="#F8CAB0"/>
<path fill-rule="evenodd" clip-rule="evenodd" d="M173.074 82.7014V94.0986C173.074 98.2998 179.694 108.479 184.145 110.006C188.596 111.533 190.153 111.438 191.276 111.438C192.399 111.438 193.979 111.533 198.406 110.006C202.833 108.479 209.53 98.2582 209.53 94.0986V82.7014L207.153 81.3049C207.153 83.6818 207.373 90.8839 207.195 93.9085C207.017 96.9331 204.664 97.3134 201.615 98.1275C199.44 98.7217 197.842 104.735 196.089 104.735C194.929 104.715 193.792 104.415 192.773 103.862C192.293 103.72 191.794 103.65 191.293 103.654C190.795 103.65 190.298 103.72 189.82 103.862C188.799 104.416 187.659 104.716 186.498 104.735C184.751 104.735 183.147 98.7098 180.972 98.1275C177.929 97.3134 175.582 97.0222 175.398 93.9085C175.214 90.7947 175.439 83.6937 175.439 81.3049L173.074 82.7014Z" fill="#333258"/>
<path fill-rule="evenodd" clip-rule="evenodd" d="M180.782 81.3406C180.634 81.4027 180.469 81.4066 180.319 81.3513C180.169 81.2961 180.046 81.1859 179.974 81.0431C179.902 80.9003 179.887 80.7356 179.932 80.5823C179.978 80.429 180.079 80.2986 180.217 80.2175C181.067 79.7639 182.016 79.5266 182.98 79.5266C183.944 79.5266 184.893 79.7639 185.743 80.2175C185.886 80.305 185.988 80.4446 186.029 80.6066C186.07 80.7687 186.047 80.9403 185.963 81.0851C185.876 81.2261 185.737 81.3273 185.576 81.3673C185.415 81.4073 185.245 81.3828 185.102 81.299C184.433 80.9511 183.69 80.7729 182.936 80.7802C182.183 80.7874 181.443 80.9799 180.782 81.3406Z" fill="#1F1F40"/>
<path fill-rule="evenodd" clip-rule="evenodd" d="M184.597 85.5715C184.572 85.1543 184.388 84.7625 184.084 84.4761C183.78 84.1896 183.378 84.0301 182.96 84.0301C182.542 84.0301 182.14 84.1896 181.835 84.4761C181.531 84.7625 181.348 85.1543 181.323 85.5715C181.323 85.7385 181.256 85.8987 181.138 86.0169C181.02 86.135 180.86 86.2014 180.693 86.2014C180.526 86.2014 180.365 86.135 180.247 86.0169C180.129 85.8987 180.063 85.7385 180.063 85.5715C180.045 85.18 180.107 84.789 180.244 84.4221C180.382 84.0552 180.593 83.72 180.863 83.4367C181.134 83.1534 181.459 82.9279 181.82 82.7739C182.18 82.6198 182.568 82.5404 182.96 82.5404C183.352 82.5404 183.739 82.6198 184.1 82.7739C184.46 82.9279 184.785 83.1534 185.056 83.4367C185.327 83.72 185.537 84.0552 185.675 84.4221C185.812 84.789 185.874 85.18 185.856 85.5715C185.856 85.7385 185.79 85.8987 185.672 86.0169C185.554 86.135 185.394 86.2014 185.227 86.2014C185.06 86.2014 184.899 86.135 184.781 86.0169C184.663 85.8987 184.597 85.7385 184.597 85.5715Z" fill="#1F1F40"/>
<path fill-rule="evenodd" clip-rule="evenodd" d="M197.462 81.3406C197.314 81.4027 197.149 81.4066 196.999 81.3513C196.849 81.2961 196.726 81.1859 196.654 81.0431C196.582 80.9003 196.567 80.7356 196.613 80.5823C196.658 80.429 196.759 80.2986 196.897 80.2175C197.748 79.7639 198.697 79.5266 199.66 79.5266C200.624 79.5266 201.573 79.7639 202.423 80.2175C202.5 80.2569 202.567 80.3114 202.622 80.3778C202.676 80.4442 202.716 80.521 202.74 80.6035C202.764 80.686 202.77 80.7725 202.759 80.8577C202.748 80.9428 202.72 81.0248 202.676 81.0986C202.632 81.1724 202.574 81.2365 202.504 81.287C202.435 81.3374 202.356 81.3731 202.272 81.3918C202.188 81.4106 202.102 81.412 202.017 81.3961C201.933 81.3801 201.853 81.3471 201.782 81.299C201.113 80.9511 200.37 80.7729 199.617 80.7802C198.863 80.7874 198.123 80.9799 197.462 81.3406Z" fill="#1F1F40"/>
<path fill-rule="evenodd" clip-rule="evenodd" d="M201.283 85.5714C201.283 85.1364 201.11 84.7193 200.802 84.4117C200.495 84.1041 200.077 83.9314 199.643 83.9314C199.208 83.9314 198.79 84.1041 198.483 84.4117C198.175 84.7193 198.002 85.1364 198.002 85.5714C198.002 85.7385 197.936 85.8987 197.818 86.0168C197.7 86.1349 197.54 86.2013 197.373 86.2013C197.206 86.2013 197.045 86.1349 196.927 86.0168C196.809 85.8987 196.743 85.7385 196.743 85.5714C196.743 84.8023 197.048 84.0648 197.592 83.5209C198.136 82.9771 198.873 82.6716 199.643 82.6716C200.412 82.6716 201.149 82.9771 201.693 83.5209C202.237 84.0648 202.542 84.8023 202.542 85.5714C202.542 85.7385 202.476 85.8987 202.358 86.0168C202.24 86.1349 202.08 86.2013 201.912 86.2013C201.745 86.2013 201.585 86.1349 201.467 86.0168C201.349 85.8987 201.283 85.7385 201.283 85.5714Z" fill="#1F1F40"/>
<path fill-rule="evenodd" clip-rule="evenodd" d="M207.047 226.641C207.047 226.641 224.184 224.092 230.816 219.79C230.816 219.79 232.182 218.845 231.867 216.533C231.552 214.222 221.439 164.283 224.344 130.774C224.344 130.774 214.873 114.873 218.402 104.628L217.321 104.266L205.193 128.189C205.193 128.189 196.677 195.539 207.047 226.641Z" fill="#0466C8"/>
<path fill-rule="evenodd" clip-rule="evenodd" d="M215.948 224.941C221.165 223.753 227.381 222.012 230.804 219.79C230.804 219.79 232.171 218.845 231.856 216.533C231.541 214.222 221.439 164.283 224.345 130.774C224.345 130.774 214.873 114.873 218.402 104.628L217.321 104.266L205.193 128.189C205.193 128.189 205.115 128.819 204.985 129.972C204.985 129.972 209.037 126.953 211.159 124.167C213.28 121.38 213.642 121.92 214.795 123.133C215.948 124.345 219.098 128.891 219.644 129.669C220.191 130.448 220.666 131.594 220.429 134.328C220.191 137.061 217.808 193.121 217.808 193.121L213.197 185.425C213.197 185.425 211.503 186.346 211.171 187.767C210.838 189.187 211.931 210.436 212.597 212.677C213.262 214.917 214.486 215.725 216.352 215.767C216.352 215.767 216.988 215.826 216.946 216.765C216.875 217.222 216.536 220.812 215.948 224.941Z" fill="#0466C8"/>
<path fill-rule="evenodd" clip-rule="evenodd" d="M212.817 191.76C212.817 191.76 213.375 210.032 215.865 213.413C218.355 216.795 230.067 212.35 230.81 210.751C231.553 209.153 231.214 206.8 230.81 204.958C230.406 203.115 228.183 190.762 228.183 190.762L215.877 189.632C215.877 189.632 212.668 189.864 212.817 191.76Z" fill="#ED7E7C"/>
<path fill-rule="evenodd" clip-rule="evenodd" d="M213.648 185.289C218.039 185.681 222.463 185.388 226.763 184.421C226.763 184.421 227.755 183.958 228.225 185.425C228.682 187.046 228.789 188.746 228.54 190.411C228.278 191.356 225.497 195.45 224.238 196.187C222.978 196.924 215.419 191.356 214.421 191.201C214.125 191.158 213.823 191.189 213.543 191.293C213.262 191.397 213.013 191.57 212.817 191.795C212.817 191.795 212.454 187.44 212.531 186.78C212.609 186.121 212.846 185.336 213.648 185.289Z" fill="white"/>
<path fill-rule="evenodd" clip-rule="evenodd" d="M201.247 133.092C201.247 133.092 195.477 194.226 202.192 227.402C202.265 227.576 202.376 227.732 202.517 227.858C202.658 227.984 202.824 228.078 203.006 228.132C204.165 228.198 205.325 227.995 206.393 227.538C207.046 227.116 206.939 227.146 207.046 226.647C207.153 226.148 199.411 175.003 206.601 128.189H202.299L201.247 133.092Z" fill="white"/>
<path fill-rule="evenodd" clip-rule="evenodd" d="M211.747 98.08C212.922 98.563 214.02 99.2179 215.003 100.023C216.546 101.204 217.72 102.799 218.39 104.622C212.87 107.391 214.908 123.507 201.247 133.092V125.795C201.247 121.635 203.261 117.25 206.221 113.227C209.18 109.204 215.431 100.362 211.747 98.08Z" fill="white"/>
<path fill-rule="evenodd" clip-rule="evenodd" d="M174.673 226.641C174.673 226.641 157.541 224.092 150.904 219.79C150.904 219.79 149.537 218.845 149.852 216.533C150.167 214.222 160.263 164.283 157.351 130.774C157.351 130.774 166.829 114.873 163.293 104.628L164.375 104.266L176.497 128.189C176.497 128.189 185.042 195.539 174.673 226.641Z" fill="#0466C8"/>
<path fill-rule="evenodd" clip-rule="evenodd" d="M168.903 191.76C168.903 191.76 168.35 210.032 165.861 213.413C163.371 216.795 151.659 212.35 150.916 210.751C150.173 209.153 150.506 206.8 150.916 204.958C151.326 203.115 153.536 190.762 153.536 190.762L165.849 189.632C165.849 189.632 169.081 189.864 168.903 191.76Z" fill="#ED7E7C"/>
<path fill-rule="evenodd" clip-rule="evenodd" d="M168.089 185.289C163.692 185.677 159.262 185.378 154.957 184.403C154.957 184.403 153.97 183.94 153.501 185.408C153.044 187.028 152.936 188.728 153.186 190.393C153.447 191.338 156.228 195.432 157.488 196.169C158.748 196.906 166.306 191.338 167.305 191.183C167.599 191.141 167.9 191.173 168.18 191.277C168.459 191.381 168.708 191.553 168.903 191.778C168.903 191.778 169.271 187.422 169.194 186.762C169.117 186.103 168.873 185.336 168.089 185.289Z" fill="white"/>
<path fill-rule="evenodd" clip-rule="evenodd" d="M180.473 133.092C180.473 133.092 186.249 194.226 179.534 227.402C179.46 227.576 179.349 227.732 179.208 227.858C179.068 227.984 178.901 228.078 178.72 228.132C177.56 228.199 176.401 227.995 175.333 227.538C174.673 227.116 174.78 227.146 174.673 226.647C174.566 226.148 182.315 175.003 175.125 128.189H179.427L180.473 133.092Z" fill="white"/>
<path fill-rule="evenodd" clip-rule="evenodd" d="M169.979 98.08C168.796 98.5669 167.692 99.2279 166.704 100.041C165.162 101.222 163.987 102.817 163.317 104.64C168.838 107.409 166.794 123.525 180.455 133.11V125.795C180.455 121.635 178.446 117.25 175.487 113.227C172.528 109.204 166.3 100.362 169.979 98.08Z" fill="white"/>
<path fill-rule="evenodd" clip-rule="evenodd" d="M98.2733 58.2014C97.275 57.2268 96.2232 56.2879 95.1833 55.3788C93.4006 53.8397 91.6179 52.3185 89.8352 50.8508C89.6629 50.7095 89.5309 50.5251 89.4527 50.3165C89.3744 50.1078 89.3526 49.8821 89.3896 49.6623C89.4111 49.448 89.4905 49.2436 89.6192 49.0709C89.748 48.8982 89.9212 48.7637 90.1205 48.6818C93.0262 47.535 96.1519 46.6377 99.1468 45.7761C103.063 44.6589 107.014 43.6012 110.966 42.6267C111.106 42.5896 111.253 42.5842 111.396 42.611C111.539 42.6377 111.674 42.6958 111.792 42.7812L125.988 52.5146C126.224 52.6776 126.392 52.9203 126.463 53.198L129.114 62.7769C129.164 62.9471 129.178 63.1257 129.155 63.3016C129.133 63.4776 129.074 63.6469 128.983 63.799C128.903 63.9462 128.79 64.0729 128.653 64.1688C128.516 64.2648 128.358 64.3274 128.193 64.3516C124.272 64.9592 120.401 65.853 116.611 67.0256C112.119 68.3508 107.662 69.8779 103.259 71.512C101.227 72.2608 99.1943 73.0333 97.1858 73.8592C97.0048 73.9365 96.805 73.9585 96.6116 73.9226C96.4181 73.8866 96.2395 73.7943 96.0984 73.6572C95.9422 73.5153 95.8239 73.3366 95.7544 73.1373C95.6848 72.9381 95.6662 72.7246 95.7003 72.5163C95.9677 70.6445 96.2945 68.7727 96.6273 66.9068C97.1343 64.0109 97.683 61.1091 98.2733 58.2014Z" fill="#0466C8"/>
<path fill-rule="evenodd" clip-rule="evenodd" d="M283.452 58.2014C284.445 57.2268 285.502 56.288 286.542 55.3788C288.325 53.8398 290.108 52.3185 291.89 50.8508C292.062 50.7092 292.193 50.5246 292.271 50.3159C292.348 50.1071 292.368 49.8816 292.33 49.6623C292.309 49.4487 292.231 49.2447 292.103 49.072C291.975 48.8994 291.803 48.7646 291.605 48.6819C288.693 47.535 285.568 46.6377 282.579 45.7761C278.663 44.6589 274.705 43.6012 270.76 42.6267C270.618 42.5895 270.47 42.5841 270.326 42.6108C270.183 42.6375 270.046 42.6957 269.928 42.7812L255.738 52.5146C255.502 52.6777 255.333 52.9203 255.262 53.198L252.612 62.7769C252.56 62.9469 252.546 63.1258 252.568 63.3019C252.591 63.4781 252.65 63.6475 252.743 63.799C252.821 63.9475 252.933 64.0751 253.071 64.1712C253.208 64.2674 253.367 64.3292 253.533 64.3516C257.454 64.9593 261.324 65.853 265.114 67.0257C269.607 68.3508 274.064 69.8779 278.467 71.5121C280.493 72.2608 282.531 73.0333 284.534 73.8593C284.716 73.9362 284.916 73.9581 285.111 73.9222C285.305 73.8863 285.485 73.7942 285.627 73.6572C285.784 73.5157 285.902 73.3368 285.97 73.1373C286.039 72.9378 286.056 72.7241 286.019 72.5163C285.758 70.6445 285.425 68.7727 285.098 66.9068C284.607 64.0109 284.058 61.1091 283.452 58.2014Z" fill="#0466C8"/>
<path fill-rule="evenodd" clip-rule="evenodd" d="M255.286 53.2218C260.367 54.2617 269.423 56.4306 271.615 57.2982C272.097 57.4943 271.425 59.3542 268.424 60.3644C265.518 61.3448 256.231 61.9212 255.167 62.1471C253.806 62.4679 252.41 63.9297 254.216 64.4527L253.557 64.3576C253.39 64.3352 253.232 64.2733 253.094 64.1772C252.957 64.081 252.844 63.9534 252.766 63.805C252.674 63.6534 252.614 63.484 252.592 63.3079C252.569 63.1317 252.584 62.9528 252.636 62.7829L255.286 53.2218Z" fill="#024180"/>
<path fill-rule="evenodd" clip-rule="evenodd" d="M126.44 53.2218C121.359 54.2617 112.303 56.4306 110.11 57.2982C109.629 57.4943 110.3 59.3542 113.301 60.3644C114.638 60.816 117.318 61.1785 119.933 61.4637C123.005 61.8024 125.982 62.0579 126.558 62.1649C127.919 62.4858 129.316 63.9476 127.503 64.4705L128.169 64.3754C128.334 64.3512 128.492 64.2886 128.629 64.1926C128.767 64.0967 128.879 63.97 128.959 63.8228C129.05 63.6707 129.109 63.5013 129.131 63.3254C129.154 63.1495 129.14 62.9709 129.09 62.8007L126.44 53.2218Z" fill="#024180"/>
<path fill-rule="evenodd" clip-rule="evenodd" d="M98.6356 44.9561L98.4692 46.3881C98.4692 46.3881 98.802 52.7107 108.518 49.3177C117.687 45.681 98.6356 44.9561 98.6356 44.9561Z" fill="#024180"/>
<path fill-rule="evenodd" clip-rule="evenodd" d="M99.5567 42.5078C98.8258 42.1751 97.8572 42.2939 97.8572 43.7498C97.8572 45.2056 98.4514 48.3253 99.5567 49.0206C100.662 49.7158 100.947 48.1114 100.947 48.1114C101.059 48.3632 101.25 48.5711 101.492 48.7032C101.734 48.8354 102.012 48.8842 102.284 48.8423C103.223 48.6581 103.193 47.4756 103.193 47.4756C103.193 47.4756 103.948 48.9314 105.012 48.5392C105.296 48.4575 105.547 48.2863 105.727 48.0508C105.907 47.8153 106.006 47.5282 106.01 47.2319C106.209 47.5262 106.473 47.7702 106.783 47.9445C107.092 48.1188 107.438 48.2186 107.793 48.2362C108.945 48.2362 109.973 45.5384 109.064 41.6997C108.155 37.861 106.551 37.5817 105.915 38.1878C105.506 38.6422 105.25 39.214 105.184 39.8219C105.184 39.8219 103.942 38.58 103.092 39.0673C102.243 39.5545 102.338 41.5808 102.338 41.2184C102.338 40.8559 100.115 38.9603 99.5567 42.5078Z" fill="#F4AD85"/>
<path fill-rule="evenodd" clip-rule="evenodd" d="M105.261 45.5087C105.107 45.7345 105.077 45.883 104.382 46.1029C104.087 46.1875 103.773 46.1811 103.481 46.0847C103.19 45.9882 102.934 45.8061 102.748 45.5621L102.647 45.4076C102.652 45.455 102.652 45.5029 102.647 45.5503C102.552 46.5961 101.916 47.0536 101.458 47.0002C101.001 46.9467 100.65 46.6317 100.193 46.0435C99.9489 45.7226 100.02 46.4594 99.8776 46.6912C99.6518 47.0477 98.9922 47.2379 98.3088 46.5486C98.6 47.6419 99.0338 48.6521 99.5983 49.0087C99.7005 49.0811 99.8154 49.1335 99.937 49.1632C100.751 49.3652 100.989 48.0995 100.989 48.0995C101.1 48.3512 101.292 48.5592 101.534 48.6913C101.775 48.8234 102.054 48.8723 102.326 48.8304C103.265 48.6462 103.235 47.4637 103.235 47.4637C103.235 47.4637 103.99 48.9195 105.053 48.5273C105.338 48.4456 105.589 48.2744 105.769 48.0389C105.949 47.8034 106.048 47.5163 106.052 47.22C106.25 47.5143 106.515 47.7582 106.824 47.9326C107.134 48.1069 107.48 48.2067 107.834 48.2243C108.019 48.2043 108.196 48.1398 108.35 48.0363C108.504 47.9328 108.631 47.7934 108.72 47.6301C108.607 47.125 108.494 46.5842 108.369 46.0197L108.244 45.4611C108.046 45.6617 107.778 45.7786 107.496 45.7879C107.111 45.7796 106.734 45.6856 106.391 45.5129C106.047 45.3402 105.747 45.0931 105.511 44.7896C105.513 45.051 105.425 45.3051 105.261 45.5087Z" fill="#F09373"/>
<path fill-rule="evenodd" clip-rule="evenodd" d="M283.084 44.2311L283.25 45.6632C283.25 45.6632 282.923 51.9858 273.208 48.5927C264.039 44.9561 283.084 44.2311 283.084 44.2311Z" fill="#024180"/>
<path fill-rule="evenodd" clip-rule="evenodd" d="M282.157 41.8067C282.882 41.4739 283.85 41.5927 283.85 43.0486C283.85 44.5045 283.256 47.6241 282.157 48.3194C281.058 49.0146 280.76 47.4102 280.76 47.4102C280.651 47.6617 280.46 47.8694 280.219 48.0007C279.978 48.1319 279.7 48.1793 279.429 48.1352C278.491 47.9569 278.52 46.7744 278.52 46.7744C278.52 46.7744 277.76 48.2303 276.702 47.8321C276.417 47.7533 276.165 47.5836 275.985 47.3488C275.804 47.1139 275.706 46.8267 275.704 46.5308C275.504 46.8239 275.239 47.0667 274.93 47.24C274.621 47.4132 274.275 47.5122 273.921 47.5291C272.768 47.5291 271.74 44.8372 272.649 40.9926C273.558 37.1479 275.163 36.8746 275.799 37.4807C276.207 37.935 276.461 38.5071 276.524 39.1148C276.524 39.1148 277.766 37.8729 278.615 38.3542C279.465 38.8355 279.376 40.8737 279.376 40.5053C279.376 40.1369 281.61 38.2413 282.157 41.8067Z" fill="#F4AD85"/>
<path fill-rule="evenodd" clip-rule="evenodd" d="M276.464 44.7777C276.619 44.9976 276.648 45.1462 277.343 45.372C277.638 45.4586 277.951 45.4533 278.242 45.3566C278.533 45.26 278.788 45.0766 278.972 44.8312L279.073 44.6767C279.07 44.7262 279.07 44.7758 279.073 44.8253C279.168 45.8711 279.804 46.3287 280.261 46.2692C280.719 46.2098 281.069 45.9068 281.527 45.3125C281.776 44.9976 281.699 45.7344 281.848 45.9602C282.074 46.3227 282.733 46.5129 283.411 45.8236C283.125 46.917 282.692 47.9212 282.127 48.2837C282.022 48.3503 281.908 48.4022 281.788 48.4382C280.968 48.6402 280.731 47.3745 280.731 47.3745C280.621 47.626 280.43 47.8337 280.189 47.965C279.948 48.0962 279.67 48.1435 279.4 48.0995C278.461 47.9212 278.49 46.7387 278.49 46.7387C278.49 46.7387 277.73 48.1945 276.672 47.7964C276.387 47.7176 276.135 47.5479 275.955 47.313C275.775 47.0782 275.676 46.791 275.674 46.4951C275.474 46.7882 275.209 47.031 274.9 47.2043C274.591 47.3775 274.245 47.4765 273.891 47.4934C273.706 47.4749 273.528 47.411 273.374 47.3074C273.219 47.2037 273.093 47.0635 273.006 46.8991C273.113 46.3881 273.231 45.8533 273.356 45.2888L273.481 44.6945C273.68 44.8951 273.948 45.0121 274.23 45.0214C274.613 45.0134 274.99 44.9195 275.332 44.7468C275.675 44.574 275.974 44.3267 276.209 44.0231C276.204 44.2965 276.295 44.5631 276.464 44.7777Z" fill="#F09373"/>
<path fill-rule="evenodd" clip-rule="evenodd" d="M271.164 37.0172C275.959 39.5664 275.828 41.7235 274.901 45.9306C273.677 51.4926 273.053 54.333 272.619 56.8822C272.025 60.2515 269.108 59.3007 269.108 59.3007C253.61 52.3067 222.235 48.8067 190.86 48.8067C159.485 48.8067 128.109 52.3186 112.63 59.3126C112.63 59.3126 109.688 60.2634 109.118 56.8941C108.684 54.3449 108.06 51.5045 106.836 45.9425C105.909 41.7235 105.772 39.5664 110.568 37.0291C123.082 30.3678 156.537 24.5028 190.872 24.4018C225.2 24.4909 258.655 30.3559 271.164 37.0172Z" fill="#0466C8"/>
<path d="M155.657 51.991L156.56 43.1275C156.801 41.0457 156.907 39.1005 157.002 36.7941L157.061 36.7872C157.566 39.0541 158.112 40.8933 158.735 42.8746L161.438 51.319L166.355 50.7475L169.206 30.06L164.587 30.5969L163.904 39.0121C163.764 41.4445 163.59 43.8506 163.552 46.1202L163.493 46.1271C162.935 43.9268 162.358 41.8194 161.637 39.5172L159.044 31.2412L154.217 31.8023L153.474 40.2244C153.255 42.7566 153.059 45.2258 152.984 47.4392L152.924 47.4461C152.361 45.4579 151.642 42.9138 150.918 40.5818L148.435 32.4743L143.578 33.0388L150.681 52.5694L155.657 51.991Z" fill="white"/>
<path d="M176.655 38.068L169.231 38.5546L168.956 34.3636L176.829 33.8475L176.584 30.1056L164.131 30.9218L165.453 51.0985L178.326 50.2548L178.08 46.5128L169.788 47.0563L169.474 42.2666L176.898 41.78L176.655 38.068Z" fill="white"/>
<path d="M177.421 50.4257L190.051 50.0468L189.936 46.2068L181.896 46.448L181.404 30.068L176.814 30.2057L177.421 50.4257Z" fill="white"/>
<path d="M202.502 46.0359C201.602 46.3959 200.072 46.6959 198.692 46.6959C194.612 46.6959 192.212 44.1459 192.212 40.0959C192.212 35.5959 195.032 33.4059 198.662 33.4059C200.282 33.4059 201.572 33.7659 202.502 34.1559L203.432 30.5259C202.622 30.1059 200.822 29.6259 198.452 29.6259C192.332 29.6259 187.412 33.4659 187.412 40.3659C187.412 46.1259 191.012 50.4759 198.002 50.4759C200.462 50.4759 202.352 50.0259 203.192 49.6059L202.502 46.0359Z" fill="white"/>
<path d="M210.592 30.1721C204.627 29.9179 200.568 34.2791 200.31 40.3336C200.065 46.0884 203.379 50.7637 209.373 51.0191C215.278 51.2707 219.465 47.4255 219.748 40.8015C219.985 35.2266 216.796 30.4365 210.592 30.1721ZM210.318 33.7937C213.465 33.9278 215.07 37.1191 214.916 40.7458C214.748 44.6722 212.855 47.5342 209.768 47.4026C206.71 47.2724 204.971 44.4057 205.139 40.4493C205.307 36.5229 207.23 33.6622 210.318 33.7937Z" fill="white"/>
<path d="M233.312 52.576L237.782 52.9783L238.492 32.6584L232.522 32.1211L229.757 38.6467C228.895 40.8373 227.965 43.4452 227.184 45.7339L227.094 45.7258C226.857 43.3153 226.454 40.7386 226.035 38.3419L224.662 31.4137L218.572 30.8656L215.462 50.9695L219.692 51.3502L220.744 43.7026C221.12 41.1961 221.491 38.0842 221.857 35.365L221.917 35.3704C222.159 38.0536 222.59 40.9957 223.037 43.4251L224.492 51.4495L228.062 51.7708L231.232 44.1022C232.225 41.8024 233.325 38.998 234.187 36.4747L234.277 36.4828C234.012 39.4228 233.838 42.3709 233.709 44.809L233.312 52.576Z" fill="white"/>
<path d="M246.797 42.5753L239.438 41.4794L240.057 37.3253L247.861 38.4874L248.413 34.7783L236.069 32.9401L233.091 52.9395L245.851 54.8396L246.403 51.1305L238.184 49.9065L238.891 45.1589L246.249 46.2547L246.797 42.5753Z" fill="white"/>
</svg>
